<?xml version="1.0" encoding="UTF-8"?>
<svg id="Layer_2" data-name="Layer 2" xmlns="http://www.w3.org/2000/svg" xmlns:xlink="http://www.w3.org/1999/xlink" viewBox="0 0 150.29 149.64">
  <defs>
    <style>
      .cls-1 {
        fill: #f1ea36;
      }

      .cls-2 {
        fill: #353432;
      }

      .cls-3 {
        fill: #6fc9d4;
      }

      .cls-4 {
        filter: url(#drop-shadow-1);
      }

      .cls-5 {
        fill: #242322;
      }

      .cls-6 {
        fill: #2b2a28;
      }

      .cls-7 {
        fill: #44413e;
      }

      .cls-8 {
        fill: #9e2066;
      }

      .cls-9 {
        fill: #a09534;
      }
    </style>
    <filter id="drop-shadow-1" filterUnits="userSpaceOnUse">
      <feOffset dx=".63" dy=".63"/>
      <feGaussianBlur result="blur" stdDeviation=".94"/>
      <feFlood flood-color="#000" flood-opacity=".75"/>
      <feComposite in2="blur" operator="in"/>
      <feComposite in="SourceGraphic"/>
    </filter>
  </defs>
  <g id="Text_Effect" data-name="Text Effect">
    <g id="Background">
      <g class="cls-4">
        <path class="cls-9" d="m112.13,3.28c.1-.3.38-.36.63-.46,0,0,.1-.07.1-.07.03.18.07.35.1.53-.28.23-.55.23-.83,0Z"/>
        <path class="cls-7" d="m112.96,3.28c-.03-.18-.07-.36-.1-.53.41-.13.78-.15.91.39-.27.05-.54.1-.81.14Z"/>
        <path class="cls-9" d="m108.56,3.47c.46-.28.94-.3,1.44-.14-.46.26-.95.22-1.44.14Z"/>
        <path class="cls-6" d="m149.93,124.68c.29.04.38.23.35.48-.03.25-.16.42-.44.41-.25-.01-.45-.15-.46-.4-.01-.35.29-.4.54-.48Z"/>
        <path class="cls-3" d="m106.25,78.14c-.15-1.73-.25-3.44.12-5.17.45-2.07,1.76-3.5,3.25-4.84,0,0,.05-.04.05-.04,1.02-.49,2.02-1.07,3.08-1.46,3.46-1.29,7.02-1.94,10.73-1.33,1.07.17,1.77.54,1.64,1.84-.11,1.13-.04,2.28-.02,3.42.01.63-.19,1.05-.85,1.19-1.47.3-2.94.63-4.42.93-.34.07-.66.14-.98-.21-.99-1.09-1.78-1.14-2.89-.36-.45.31-.71.69-.66,1.25.06.66.58.75,1.08.84,1.3.23,2.62.4,3.9.69,2.33.53,4.42,1.59,5.08,4.06.73,2.77.48,5.52-1.22,7.99-.09.11-.18.22-.27.33h.02c-.77-.06-.91.42-.89,1.04h0c-.84,0-1.34.43-1.55,1.22-.02-.02-.04-.05-.06-.07l.06.07c-.6-.08-1.05.07-1.18.74h.01c-.73.06-1.73-.45-1.91.84h0c-.4.03-.81.04-1.21.11-2.4.44-4.78.99-7.25.95-3.11-.05-3.11-.02-3.11-3.08,0-3.05-.02-3.2,2.93-3.62,1.03-.14,2.44-1.16,3.38.39.79.5,1.72.41,2.51.28.85-.14,1.55-.83,1.6-1.81.05-.97-.55-1.49-1.46-1.69-.58-.12-1.15-.25-1.73-.37-2.09-.42-4.08-1.14-6.02-2-.15-.97-.74-1.61-1.55-2.1-.06,0-.12-.02-.18-.03Z"/>
        <path class="cls-3" d="m127.57,102.1c-.67,1.49-.28,3.04-.24,4.56.02.64.65.7,1.18.6,1.12-.21,2.22-.51,3.37-.53.69-.01,1.09-.48,1.1-1.17.02-1.23.04-2.47-.06-3.7-.07-.75-.24-1.58-1.27-1.7-.46-.05-.52-.42-.57-.81-.23-1.75.78-3.33,2.5-3.49,1.81-.17,3.49-.83,5.27-1.08.77-.11,1.54-.33,2.05.51.56-.12.12-.82.65-.96.06.08.19.16.21.27.09.76.31,1.47.16,2.29-.17.9-.36,1.53-1.34,1.77-.64.16-.99.7-.91,1.36.5,4.05.09,8.12.23,12.18.02.61-.2,1.35.74,1.51,1.04.7,1.6,2.73,1.06,3.89-.24.51-.7.8-1.2.81-1.75.05-3.31.92-5.05,1.07-1.05.09-1.99.19-3.05-.2-.72-.27-1.23-.6-1.12-1.19.1-.53-.48-1.61.87-1.61.46,0,.77-.59.78-1.02.04-1.77.31-3.56-.3-5.31-.23-.65-.49-.9-1.18-.62-.76.31-1.56.48-2.38.6-1.2.18-1.94.78-1.85,2.22.12,1.98-.1,3.91,1.19,5.75,1.04,1.49.16,2.87-1.65,3.21-2.36.44-4.65,1.22-7.05,1.5-1.05.12-1.95-.83-1.58-1.8.14-.37.24-.65.08-1.03-.25-.58.12-.61.55-.55,1.14.16,1.25-.55,1.21-1.42-.19-4.47-.31-8.95.07-13.42.06-.7-.09-1.48-.78-1.56-1.16-.13-1.07-.9-1.18-1.64-.25-1.68.17-2.3,1.82-2.69,1.12-.26,2.24-.52,3.23.4.24.22.65.33.86.02.27-.4-.4-.54-.4-1.03,1.34-.32,2.67-.72,4.09-.71.76,0,1.26.16,1.02,1.12-.22.91.25,2.07-1,2.61-.12.05-.07.5-.1.77.02.06.02.12-.03.18Zm13.53-5.2c-.05-.05-.11-.09-.16-.14-.02.03-.07.09-.07.1.05.05.1.1.16.14.02-.03.05-.07.07-.1Zm-13.89.99s0-.09-.03-.1c-.04-.02-.09-.02-.13,0-.11.06-.1.12.04.15.04,0,.08-.03.12-.04Z"/>
        <path class="cls-5" d="m149.49,145.84c-.09.13-.18.27-.28.4.09-.13.18-.27.28-.4Z"/>
        <path class="cls-9" d="m136.34,122.72c.08-.07.16-.08.24-.01-.07.13-.15.14-.24.01Z"/>
        <g>
          <path class="cls-3" d="m74.74,113.1c-.02-.18.01-.4-.08-.53-.31-.4-1.28.01-1.16-.32.35-1.01-.21-2.02.2-2.98.15-.35.35-.72.74-.73,1.21-.01,2.21-.83,3.42-.85.36,0,.8-.23,1.05.05.49.54.7.58.89-.2.12-.47.61-.47,1.03-.51,1.35-.11,2.63-.76,4.05-.39.36.09.87-.22,1.26-.44,1.6-.9,3.27-.62,4.93-.33.78.14,1.42.57,1.4,1.57,1.1-.88,1.42-.63,1.93,1.38-.41-.03-.8-.05-1.31-.09.67,1.42,1.24,2.8,1.16,4.28-.1,1.89-1.53,2.92-2.83,4.02-.19.16-.6.18-.53.54.07.39.44.38.76.45.72.15,1.61.17.89,1.33-.16.26.12.52.37.65.37.18.47-.11.54-.38.07-.24.21-.43.48-.36.26.06.33.31.33.54,0,.41.07.87-.09,1.21-.25.56-1.12.93-.24,1.7.48.42.6,1.08,1.34,1.42,1.32.59.51,1.92.59,2.92.06.84-.66.46-1.12.4-.29-.04-.58.03-.68.33-.32.99-1.22,1.08-2,1.17-1.22.14-2.45.17-3.64.58-.66.23-1.11-.14-1.01-.85.34-2.39-.49-4.83.33-7.19.09-.27.12-.52-.1-.76-.73-.78-3.1-1.34-4.15-.98-.51.17-.78.6-.81,1.02-.14,1.68-.54,3.33.15,5.05.37.92.82.86,1.6.74-.25.99-.3,1.82.07,2.79.42,1.1-.96,1.45-1.64,1.52-2.88.33-5.65,1.31-8.56,1.45-.28.01-.48.18-.61-.21-.41-1.23.3-3.26,1.42-3.88.45-.25.73-.58.67-1.08-.44-4.11-.08-8.22-.2-12.33-.02-.58.1-1.25-.73-1.41-.04-.1-.07-.19-.11-.29Zm8.84-1.86c-.61.44-.28,1.02-.25,1.56-.02.63-.06,1.25-.06,1.88,0,1.95.19,2.08,2.05,1.44.16-.05.28-.2.42-.3.1-.09.19-.17.29-.26.2-.08.31-.22.31-.44.41-.61.26-1.31.27-1.97.03-2.31-.49-2.67-2.75-1.97-.1.02-.19.03-.29.05Zm2.08,6.37c.61.53.9.98,1.46,1.07.04,0,.2-.24.17-.29-.28-.48-.65-.83-1.63-.78Zm7.62-4.14c.02-.13.06-.26.04-.37,0-.04-.14-.06-.22-.1-.03.12-.08.24-.09.36,0,.03.14.06.26.11Zm-18.67-1.74c-.05-.05-.11-.09-.17-.14l-.07.1c.05.05.11.1.16.14l.07-.1Z"/>
          <path class="cls-3" d="m55.84,112.57c.57.87,1.29.7,1.76.04.61-.87,1.46-.8,2.3-.88.38-.04.76.05.82.53.05.4.16.88-.14,1.19-.34.34-.53-.05-.73-.29-.18-.21-.34-.08-.39.12-.08.37-.09.84.4.85,1.43.03.92.53.34,1.14-1.03,1.08-.68,2.53-.74,3.77-.18,3.65-.1,7.32-.14,10.98,0,.57.25.76.74.96,1.11.46,2.17.04,3.24-.09.47-.06.43-.51.48-.87.55-3.94.8-7.9.31-11.87-.13-1.08.06-2.19-.27-3.27-.13-.43-.12-.9-.54-1.21-.34-.25-.43-.65-.26-.99.32-.61.55-.03.83.11.43.22.4-.14.46-.4.15-.72-.47-.87-1-1.21,1.37-1.25,3.2-.19,4.53-1.09,1.4-.95,2.94-.83,4.57-.79-.23.88-1.3.15-1.38,1.1.56.09,1.57-.53,1.55.68-.01.84.39,1.89-1.08,2.08-.87.12-1.07,1-1.06,1.72.03,2.56-.13,5.11.15,7.67.31,2.84-.02,5.66-1.64,8.14-.42.63-.52,1.24-.48,1.93h0c-.33-.04-.66-.02-.9.23-2.35,2.5-5.54,2.98-8.67,3.54-2.25.4-5.11-1.17-6.15-3.19-.1-.2-.15-.43-.2-.65-.73-2.91-.56-5.88-.57-8.84,0-1.46,0-2.93,0-4.39,0-.56-.04-1.08-.57-1.46-1.05-.75-1.46-2.75-.85-3.86.22-.4.53-.65.98-.62,1.5.11,2.83-.64,4.26-.85l.04.05Zm10.05-1.21c-.03-.26-.14-.39-.34-.36-.09.01-.23.15-.23.24,0,.19.14.33.33.31.09,0,.18-.13.24-.19Z"/>
          <path class="cls-9" d="m100.58,17.71c.16.41-.19.99.42,1.24,0,4.32,0,8.64,0,12.95-.31,3.49-.5,7-.3,10.48.19,3.43-.2,6.82-.18,10.23-1.48.88-1.98.65-1.98-.96,0-10.81.01-21.63-.03-32.44,0-1.65.95-1.58,2.06-1.51Z"/>
          <path class="cls-2" d="m29.74,21.48c-.04.09-.1.13-.2.12,0-.14.05-.23.2-.12Z"/>
          <path class="cls-2" d="m29.55,21.51c-.02.21-.16.29-.35.3.12-.1.23-.2.35-.3Z"/>
          <path class="cls-3" d="m115.57,123.16c-3.04,2.1-6.4,3.35-10.07,3.72-5.5.55-8.45-1.54-9.4-6.98-.62-3.54-.53-7.14.62-10.59,1.88-5.65,6.13-8.32,11.8-9.11,2.24-.31,4.44-.39,6.67.2,1.06.28,1.36.8,1.34,1.82-.04,2.15.01,4.29.03,6.44-.02.1-.05.19-.07.29-1.65.36-3.3.73-4.95,1.08q-2.07.45-2.21-1.7c-.02-.32-.08-.63-.12-.95-.13-1.06-.79-1.35-1.76-1.22-1.49.2-2.24,1.12-2.26,2.92-.03,3.25-.02,6.49-.01,9.74,0,.59-.04,1.2.46,1.67,1.41.91,3.12.3,3.52-1.26.24-.94.23-1.89.2-2.84-.02-.72.24-1.02.97-1.15,2.05-.37,4.09-.83,6.13-1.26.02.09.05.17.11.25-.02,2.18-.07,4.36-.04,6.53.02.96-.12,1.78-.91,2.39l-.03.02Z"/>
          <path class="cls-3" d="m45.08,139.14c-2.04-.21-3.83.88-5.81,1.06-1,.09-1.33-.14-1.29-1.11.05-1.13.03-2.26.05-3.4.15-.03.3-.05.46-.08,1.04.07,1.27-.8,1.3-1.44.06-1.43-.1-2.88-.2-4.32-.04-.54-.34-.85-.92-.72-.33.07-.66.15-.82-.24-.15-.37.15-.59.37-.81,1.21-1.23,1.81-2.63,1.43-4.4-.11-.52-.05-1.11.08-1.63.25-.99-.12-1.64-1-1.96-.76-.27-.82-.8-.68-1.42.15-.63.27-1.23.05-1.88-.19-.56.18-.83.7-.94,2.94-.63,5.89-1.29,8.83-1.91.88-.19,1.4.11,1.33,1.15-.08,1.25.17,2.55-1.27,3.33-.57.31-.67,1.05-.66,1.72.01,4.07.01,8.15.02,12.22,0,.52-.02,1.13.49,1.35,1.81.76.91,2.33,1.12,3.55.09.54-.39.71-.87.86-.91.29-1.79.68-2.68,1.02Z"/>
          <path class="cls-3" d="m34.66,126.57c.44.95,1.11.94,1.9.45.33-.2.74-.33.98.05.26.4-.07.82-.41.84-.69.06-.52,1.85-1.67.79-.56.92-1.43,1.79-1.6,2.77-.24,1.36.13,2.81-.17,4.22-.13.63.09,1.17.65,1.35,1.59.53,1.09,1.85.98,2.82-.11,1.01-1.07,1.19-2.09,1.31-1.75.21-3.49.63-5.18,1.15-.96.29-2.01-.4-2.91.48.12-1.59-.81-3.33,1.1-4.44.48-.28.45-.86.45-1.37,0-4.12,0-8.23,0-12.35,0-.89-.09-1.69-1.27-1.69-.13,0-.28-.05-.38-.13-.56-.45-.29-3.6.39-3.85,2.34-.85,4.72-1.61,7.27-1.3.68.08,1.37.22,1.88-.46.14-.19.38-.29.61-.17.26.13.15.38.13.6-.04.41-.17.86-.05,1.22.36,1.08.21,1.86-.97,2.28-.23.08-.44.34-.57.57-.39.71.3,4.23.92,4.83h.01Z"/>
          <path class="cls-9" d="m72.03,19.05c1.41,4.4,1.19,8.78-.25,13.12-.59.78-.9,1.69-1.13,2.63-.09.13-.18.27-.28.4v-.03c-1.25,1.49-2.51,2.97-3.74,4.48-.5.61-.48,1.12.35,1.49,3.68,1.65,5.76,4.64,6.97,8.36.03.19.05.39.08.58,0,.64,0,1.27,0,1.91-.02.07,0,.14.04.2,0,.2.01.4.02.59-.12,1.37-.24,2.73-.37,4.1-.63.2-.92.59-.89,1.29.04.8-.02,1.6-.04,2.41-.28.59-.57,1.19-.85,1.78-.26.46-.51.93-.77,1.39-.83,1.09-1.65,2.19-2.48,3.28-.36.39-.71.77-1.07,1.16-1.29,1.23-2.72,2.29-4.26,3.17-2.47,1.43-4.95,2.87-7.86,3.28.86-.85,2.03-1.14,3.08-1.65,7.51-3.7,12.16-9.5,13.06-17.96.58-5.46-1.02-10.68-6.66-13.35-1.43-.68-1.45-1.01-.34-2.19,4.36-4.63,6.58-9.94,5.81-16.44-.71-5.94-3.91-9.68-9.81-10.91-.31-.06-.66-.01-.74-.44,1.27-.24,2.51,0,3.75.26,1.7.35,3.17,1.27,4.76,1.89v-.02c.03.35.25.49.57.53h0c1.18,1.45,2.38,2.9,3.02,4.7Z"/>
          <path class="cls-1" d="m60.75,12.21c.08.43.44.38.74.44,5.89,1.23,9.1,4.97,9.81,10.91.77,6.5-1.45,11.82-5.81,16.44-1.11,1.18-1.09,1.51.34,2.19,5.64,2.67,7.24,7.89,6.66,13.35-.9,8.47-5.55,14.27-13.06,17.96-1.04.51-2.21.8-3.08,1.66-.17.05-.35.1-.52.15-.55-.11-1.05-.07-1.4.45-.61.28-1.34.16-1.9.6-.73.01-1.44.13-2.07.54-.19-.24-.39-.12-.59,0-.59.06-1.18.1-1.76.19-4.53.72-9.07,1.01-13.61.1-.66-.13-1.29-.48-2-.31-.31-.4-.76-.27-1.17-.29,0-.5-.39-.5-.73-.57v.03c-.12-.29-.38-.27-.63-.3h-.01c-.02-.1-.06-.19-.06-.28-.03-5.29-.04-10.58-.07-15.87,0-.6.34-.72.85-.83,2.94-.61,5.86-1.32,8.81-1.87,1.85-.34,3.64-1.19,5.6-.79-.6.14-.79.57-.75,1.13.06.9.12,1.81.22,2.71.27,2.38,2.04,3.48,4.39,2.74,2.38-.1,4.21-1.41,4.84-3.71.56-2.04.62-4.16.18-6.24-.35-1.7-1.6-2.66-3.27-2.43-1.98.27-3.93.73-5.89,1.11-.09-.04-.18-.03-.25.04-.2-.03-.39-.05-.59-.08.03-3.94.06-7.87.09-11.81,2.04-.44,4.12-.74,6.11-1.35,1.38-.43,2.75-1.15,3.25-2.75l-.03.03c.07-.11.14-.22.21-.34.89-1.46.56-3.07.52-4.63-.06-2.49-2.43-3.85-4.46-2.89-2.14-.36-4.69,1.78-5.06,4.28-.19,1.25-.36,2.51-.29,3.78-4.83,1.06-9.65,2.24-14.56,2.93v-.03s.04-.08.04-.08l-.07-.06c.02-4.82.05-9.63.06-14.45,0-.59-.02-1.18.26-1.73l-.05.02c.19-.01.32-.09.35-.3v.08c.09.01.15-.03.19-.12,3.26-2.27,6.59-4.43,10.32-5.88,1.23-.48,2.47-.93,3.7-1.4,1.74-.5,3.47-1,5.21-1.5.4-.04.8-.05,1.19-.11,2.44-.41,4.87-.86,7.35-.89.09.13.16.11.24-.01.73,0,1.45,0,2.18.01Z"/>
          <path class="cls-9" d="m42.86,56.84c1.34-.67,1.61-.55,1.65.81.02.77-.02,1.55.05,2.32.13,1.51.95,2.6,2.17,3.44-2.36.74-4.13-.36-4.39-2.74-.1-.9-.16-1.81-.22-2.71-.04-.56.14-.99.75-1.13Z"/>
          <path class="cls-3" d="m35.32,83.3c2.17.43,4.12-.6,6.17-.95,3.12-.53,6.17-1.48,9.34-1.75,1.13-.1,2.11-.8,3.25-.98.97-.15,1.35.06,1.33,1.07-.04,2.1-.02,4.2,0,6.31,0,.82-.26,1.24-1.14,1.36-1.08.15-2.13.53-3.2.74-.89.18-1.45,0-1.45-1.16,0-2.96-.05-2.92-3.05-2.41-1.11.19-1.64.72-1.59,1.82.06,1.35-.28,2.75.48,4.02.19.54.57.46,1.01.35.54-.13,1.19-.29,1.22.57.03.73.36,1.79-.71,1.95-1.91.29-2.18,1.44-2,3.03.14,1.31-.21,2.65.33,3.93.31.74.7,1.07,1.43.45.17-.15.38-.26.59-.34q2.31-.84,2.32-3.26v-.55c0-1.92.03-1.77,1.95-2.13,1.01-.19,2.06.13,3.02-.39.33-.18.59-.03.59.45-.03,2.23-.15,4.46,0,6.68.11,1.57-.92,1.91-1.94,2.09-3.16.56-6.32,1.18-9.43,1.88-2.23.5-4.59.63-6.75,1.54-.8.34-1.52.34-1.24-.92.1-.42-.01-.81-.12-1.21-.16-.63-.06-1.21.59-1.51,1.05-.48,1.25-1.35,1.24-2.38-.01-2.84,0-5.67,0-8.51,0-1.05-.02-2.1.23-3.13.25-1,.1-1.95-.88-2.5-.46-.26-2.3,1.12-2.55,1.8-.57,1.61-1.56,2.19-3.2,1.94-.56-.08-.45-.48-.49-.82-.09-.73-.36-1.27-1.22-1.05-.82.2-2.17-.31-2.04,1.3.36,4.61.2,9.23.27,13.84,0,.24-.06.61.35.58.09,0,.16-.3.23-.45.19,0,.38,0,.56,0,.7.57,1.11,2.63.7,3.75-.36.98-1.16,1.18-2.1,1.14-.31-.01-.64.07-.93.18-1.92.74-3.97.96-5.96,1.39-2.01.44-2.22.14-2.23-1.86,0-.85-.05-1.65,1.06-1.88.27-.06.3-.42.25-.71h0c1.16-.26.63-1.16.57-1.76-.3-3.14-.23-6.26-.02-9.4.07-1.09.65-2.33-.43-3.3-.05-.06-.07-.12-.06-.2-.16-.93-.77-.64-1.22-.37-.5.3-1.59.11-1.29,1.22.39,1.45-.43,1.86-1.61,2.06-.49.08-1.17-.17-1.37.6-.3.2-.63.25-.99.21-.58-2.01-.25-4.06-.31-6.1-.02-.76.44-1.16,1.14-1.32,2.07-.45,4.14-.9,6.22-1.32.79-.16,1.64-.16,2.17-.92v.02c.93.13,1.82.11,2.73-.11,2.34-.56,4.68-1.1,7.03-1.61,1.1-.24,2.27-.22,3.19-1.01h-.02Zm13.79,21.07l.1-.06c-.04-.05-.08-.11-.13-.16l-.1.06c.04.05.08.11.12.16Z"/>
          <path class="cls-3" d="m104.1,73.8c-.91.19-.58.93-.59,1.45-.02,4.33-.01,8.66,0,12.99,0,1.32-.1,2.64-.23,3.96-.09.99-.52,1.51-1.38,1.52-1.51.03-2.83.64-4.22,1.07-.04.01-.09.03-.13.04-.63.07-1.55.38-1.79-.16-.34-.77.55-.49.96-.58.17-.04.37,0,.55-.01.13-.01.26-.05.55-.12-.57-.52-1.12-.73-1.75-.52-.77.25-1.13-.1-1.54-.72-.95-1.42-2.15-2.68-2.97-4.16-.88-1.6-2.37-2.82-2.74-4.75-.13-.71-1.02-1.13-1.71-1.14-.78-.01-.98.75-.91,1.43.08.74-.25,1.18-1.29,1.52,1.31.21,1.3.89,1.29,1.6-.02,1.37,0,2.74-.01,4.12,0,.57.06,1.09.58,1.46.36.25,1.07.04,1.12.62.07.86,0,1.73-.08,2.6-.04.49-.4.49-.82.43-.54-.09-1.09-.11-1.63-.13-.22,0-.61,0-.57.23.28,1.63-.98.95-1.65,1.13-.93.25-1.86.47-2.79.7-.4.1-.97.27-1.13-.13-.24-.61-.85-1.14-.6-1.89.1-.31.3-.65.7-.42.63.37.8.14.82-.49.02-.82-.44-.39-.79-.34-.21.03-.44-.05-.67-.09-.02-.5.38-.52.64-.6.77-.24,1.09-.74,1.09-1.53,0-4.35.01-8.69-.01-13.04,0-.89-.24-1.67-1.43-1.51-.16.02-.4.02-.5-.08-.61-.61.19-3.53,1.06-3.88,1.19-.48,2.5-.45,3.73-.81,1.47-.43,3.02-.55,4.52-.84.87-.17,1.51,0,1.95.84.25.48.51.95.94,1.33.75.66.19,1.39-.15,2.29,1.26-.91,1.33-.22,1.92.63,1.29,1.87,2.62,3.72,4,5.54.16.21.11.75.61.53.34-.15.67-.39.64-.81-.1-1.89.53-3.78-.04-5.65-.14-.45.06-.8.07-1.2.01-.51.03-1.02-.57-1.26-.34-.14-1.04.06-.94-.52.14-.78.87.07,1.31-.33.02-1.1-1.33-.56-1.59-1.2-.28-.67-.21-1.4.35-2.06.79,1.54,1.42,1.57,2.84.22-.5-.52-1.15.31-1.71-.25.98-.78,2.24-.49,3.28-.91.68-.27,1.4-.42,2.1-.62.35-.1.75-.28.93.2.6,1.57.98.74,1.39-.34.42,1.12.54,2.04-.14,2.84-.47.55-.66,1.18-.89,1.83h.01Z"/>
          <path class="cls-3" d="m67.01,90.6c.01.07-.01.14-.06.19-1.41,1.13-.6,2.7-.8,4.06-.09.59.29.91.77,1.15.04.07.07.15.07.24.97,1.25,2.03.33,3.06.13.84-.16,1.08-.72,1.03-1.51-.04-.68.07-1.38-.03-2.06-.22-1.47.48-2.12,1.84-2.28.09-.01.18-.02.27-.03,3.3-.62,4.04.19,3.6,3.58-.15,1.13-.39,2.29-.21,3.47.13.86.13,1.49-1.25,1.42-1.12-.06-2.13,1.07-3.4,1.13-1.78.09-3.44,1.22-5.32.63-.17-.05-.6-.08-.39.26.31.52.06.5-.32.51-2.15.08-4.16.84-6.25,1.26-.72.15-1.77.51-2.13-.27-.38-.83-.5-1.88.57-2.68.8-.59.92-1.63.92-2.63-.01-3.25.02-6.5-.02-9.75-.01-1.21.69-2.42-.03-3.63-.24-.4-.24-.98-1-.85-.45.08-.57-.38-.59-.76-.02-.55.04-1.1-.02-1.65-.1-.89.28-1.3,1.13-1.56,1.83-.55,3.72-.82,5.54-1.29,3.36-.86,6.75-1.49,10.13-2.18,1.78-.36,2.19-.06,2.18,1.7,0,.88.1,1.73.4,2.56.44,1.23,0,2.4-.28,3.58-.03.11-.17.24-.28.26-1.37.29-2.75.57-4.13.83-.14.03-.31-.13-.47-.2.85-.99-.64-1.46-.5-2.41.21-1.43-.49-1.88-1.83-1.38-.81.3-2.09-.16-2.23,1.3,0,.08-.01.17-.05.24-.69.77-1.13,3.69-.7,4.6.14.28.42.31.68.38.12.35.36.5.73.46.48-.05,1.13-.51,1.22.45.07.78.14,1.6-.94,1.77-.55.09-.96.28-.91.94Z"/>
          <path class="cls-8" d="m3.22,3.53l-.4,3.06,137.83,17.9-11.28,121.47,3.07.28.33-3.06s-.5-.05-1.43-.16c-7.01-.76-38.61-4.23-68.43-8.01-14.91-1.89-29.37-3.86-40.06-5.6-5.34-.87-9.74-1.68-12.71-2.38-.74-.17-1.39-.34-1.93-.49-.41-.11-.75-.22-1.02-.32-.2-.07-.37-.13-.47-.18-.08-.03-.13-.06-.14-.06v.02s0-.02,0-.02h0s-.01.02-.01.02v-.02s-.81,1.43-.81,1.43l1.19-1.12c-.25-.25-.35-.29-.37-.31l-.82,1.43,1.19-1.12-1.89,1.78,2.32-1.14c-.15-.31-.31-.5-.44-.63l-1.89,1.78,2.32-1.14-2.53,1.25h2.82c0-.5-.13-.94-.29-1.25l-2.53,1.25h2.82-2.86l2.68.99c.11-.3.18-.65.18-.99h-2.86l2.68.99-2.62-.97,2.22,1.7c.14-.19.29-.43.4-.73l-2.62-.97,2.22,1.7h0c.34-.46.47-.79.59-1.09.1-.28.17-.53.24-.78.11-.47.2-.96.27-1.51.13-.96.23-2.11.31-3.48.25-4.07.35-10.03.35-17.22,0-17.99-.63-43.57-1.27-64.67C6.93,20.03,6.3,3.41,6.3,3.41l-3.08.12-.4,3.06.4-3.06-3.08.12s0,.26.03.75c.14,3.71.76,20.68,1.35,40.92.59,20.24,1.14,43.75,1.14,60.49,0,6.17-.08,11.43-.25,15.21-.09,1.89-.2,3.41-.33,4.44-.06.51-.13.9-.18,1.09-.01.05-.02.08-.03.1h0s.4.14.4.14l-.39-.15v.02s.39.13.39.13l-.39-.15,1.87.71-1.58-1.21c-.23.32-.27.45-.29.5l1.87.71-1.58-1.21h0c-.18.23-.36.53-.49.88-.13.35-.21.75-.21,1.15,0,.51.12.99.29,1.35.16.37.36.64.54.85.36.42.68.64.96.82.28.18.54.31.8.43.52.23,1.05.43,1.67.62,1.18.37,2.65.73,4.41,1.12,3.3.72,7.65,1.49,12.76,2.31,8.94,1.44,20.22,3,32.13,4.55,35.71,4.64,77.05,9.09,77.07,9.09l3.11.33,12.12-130.5L0,0l.14,3.64,3.08-.12Z"/>
          <path class="cls-3" d="m3.9,140.84c-.59-2.44-.88-4.9-.54-7.4.25-1.85.47-3.71,1.27-5.44.74-1.62,1.79-3.06,3.17-4.14.91-.71,1.82-1.71,3-1.81,1.78-.15,3.08-1.49,4.9-1.62,1.83-.13,3.63-.28,5.44.09.45.09.89.2,1.33.32.25.07.44.45.35.49-1.59.68.01,1.26.06,1.87.11,1.34-.33,2.63-.33,3.95,0,1.33-.63,1.75-1.85,1.61-.85-.1-1.59.37-2.4.51-.99.18-1.65-.08-1.49-1.26.17-1.23-.26-2.09-1.39-2.68-1.28-.67-3.34.21-3.72,1.6-.3,1.13-.11,2.25-.12,3.38-.02,2.83.17,5.67-.12,8.5-.14,1.4.64,2.64,1.54,2.73,1.8.18,3.31-.86,3.54-2.44.05-.36.15-.71.21-1.07q.4-2.51,2.91-2.99c.36-.07.71-.19,1.07-.23,1.97-.22,2.1-.1,2.12,1.88,0,1.19-.09,2.39.03,3.57.15,1.52-.7,2.33-1.9,2.79-1.54.58-3.12,1.22-4.55,1.87-2.55,1.17-4.97,1.61-7.64,1.16-1.23-.21-2.36-.6-2.84-2.02-.3-.91-1.57-1.13-1.82-2.16-.09-.35-.17-.71-.25-1.06.23-.05.45-.12.46-.41,0-.15-.15-.31-.25-.19-.13.15-.14.4-.2.61Z"/>
          <path class="cls-1" d="m86.59,7.65c2.25-.22,4.42-.79,6.59-1.37.89-.15,1.79-.28,2.68-.45,4.23-.81,8.37-2.06,12.7-2.36.49.08.98.12,1.44-.14.71-.02,1.42-.03,2.13-.05.28.24.55.24.83,0,.27-.05.54-.1.81-.15.08.05.16.09.23.14.1.23.28.35.52.38,8.17,1.27,12.17,6.74,14.11,14.18,1.29,4.95,1.45,10,1.14,15.09-.29,4.73-1.04,9.34-2.86,13.73-2.73,6.58-6.97,11.83-13.4,15.17-1.73.9-3.64,1.38-5.26,2.5-.23.07-.47.14-.7.21-.36-.16-.66-.04-.92.22-1.08.27-2.13.59-3.24.81-5.63,1.11-11.23,2.38-16.84,3.6-1.46.19-2.9.45-4.29.92-.23.05-.45.1-.68.15-.15.02-.29.05-.44.07-.19.05-.39.1-.58.16-2.14.38-4.27.77-6.41,1.13-.38.06-.9.45-1.09-.29,0-2.98,0-5.96,0-8.94.02-.8.09-1.61.04-2.41-.04-.7.25-1.09.89-1.29.93-.05,1.72-.76,2.7-.57,1.24.05.79-.93.79-1.48.02-10.79,0-21.59.03-32.38,0-1.04-.13-1.58-1.35-1.17-.64.22-1.36.18-2.02.36-.91.26-1.08-.1-1.07-.93.04-3.38.11-6.77-.01-10.15-.05-1.43.5-1.82,1.77-2.09,3.92-.82,7.89-1.47,11.75-2.6Zm17.69,44.25c1.01-.46,1.73-1.18,2.03-2.27.03-.09.06-.18.08-.27.33-.21.31-.53.27-.85.06-.19.12-.37.18-.56.08-.81.22-1.63.22-2.44,0-7.71,0-15.42-.03-23.13,0-.82-.05-1.65-.23-2.44-.56-2.35-2.42-3.21-4.69-2.23v.03c-.76.05-1.52-.02-2.21.38-1.11-.08-2.07-.14-2.06,1.51.05,10.81.02,21.63.03,32.44,0,1.61.5,1.84,1.98.96,1.59.11,3.07-.21,4.4-1.1h.03Z"/>
        </g>
        <path class="cls-9" d="m129.96,13.97c.39,1.17.79,2.34,1.18,3.51,1.2,5.63,1.19,11.32.99,17.03-.51,2.83-1.02,5.67-1.53,8.51-.04.09-.07.18-.11.27-.05.08-.11.17-.16.25-.03.19-.07.38-.1.57-.33.61-.65,1.23-.73,1.93-1.22,2.8-2.66,5.48-4.44,7.96-.06.14-.11.29-.17.43-2,1.74-3.74,3.75-5.87,5.34-1.87.97-3.58,2.23-5.61,2.92-1.71.58-3.29,1.54-5.16,1.63,1.62-1.12,3.54-1.6,5.26-2.5,6.43-3.34,10.67-8.58,13.4-15.17,1.82-4.39,2.57-9.01,2.86-13.73.32-5.09.16-10.14-1.14-15.09-1.94-7.43-5.94-12.91-14.11-14.18-.24-.04-.43-.15-.52-.38.4-.06.8-.13,1.2-.19,5.66.45,10.1,2.98,13.2,7.77.52,1.04,1.04,2.08,1.56,3.12Z"/>
      </g>
    </g>
  </g>
</svg>