<?xml version="1.0" encoding="UTF-8"?>
<svg id="Layer_2" data-name="Layer 2" xmlns="http://www.w3.org/2000/svg" xmlns:xlink="http://www.w3.org/1999/xlink" viewBox="0 0 256.81 687.44">
  <defs>
    <style>
      .cls-1 {
        fill: none;
      }

      .cls-2 {
        fill: #fa7100;
      }

      .cls-3 {
        fill: url(#_10_dpi_30_);
        opacity: .27;
      }

      .cls-4 {
        fill: #231f20;
      }
    </style>
    <pattern id="_10_dpi_30_" data-name="10 dpi 30%" x="0" y="0" width="28.8" height="28.8" patternTransform="translate(-2796.04 -1527.82) scale(1.06)" patternUnits="userSpaceOnUse" viewBox="0 0 28.8 28.8">
      <g>
        <rect class="cls-1" x="0" y="0" width="28.8" height="28.8"/>
        <g>
          <path class="cls-4" d="m28.8,30.96c1.19,0,2.16-.97,2.16-2.16s-.97-2.16-2.16-2.16-2.16.97-2.16,2.16.97,2.16,2.16,2.16Z"/>
          <path class="cls-4" d="m14.4,30.96c1.19,0,2.16-.97,2.16-2.16s-.97-2.16-2.16-2.16-2.16.97-2.16,2.16.97,2.16,2.16,2.16Z"/>
          <path class="cls-4" d="m28.8,16.56c1.19,0,2.16-.97,2.16-2.16s-.97-2.16-2.16-2.16-2.16.97-2.16,2.16.97,2.16,2.16,2.16Z"/>
          <path class="cls-4" d="m14.4,16.56c1.19,0,2.16-.97,2.16-2.16s-.97-2.16-2.16-2.16-2.16.97-2.16,2.16.97,2.16,2.16,2.16Z"/>
          <path class="cls-4" d="m7.2,23.76c1.19,0,2.16-.97,2.16-2.16s-.97-2.16-2.16-2.16-2.16.97-2.16,2.16.97,2.16,2.16,2.16Z"/>
          <path class="cls-4" d="m21.6,23.76c1.19,0,2.16-.97,2.16-2.16s-.97-2.16-2.16-2.16-2.16.97-2.16,2.16.97,2.16,2.16,2.16Z"/>
          <path class="cls-4" d="m7.2,9.36c1.19,0,2.16-.97,2.16-2.16s-.97-2.16-2.16-2.16-2.16.97-2.16,2.16.97,2.16,2.16,2.16Z"/>
          <path class="cls-4" d="m21.6,9.36c1.19,0,2.16-.97,2.16-2.16s-.97-2.16-2.16-2.16-2.16.97-2.16,2.16.97,2.16,2.16,2.16Z"/>
        </g>
        <g>
          <path class="cls-4" d="m0,30.96c1.19,0,2.16-.97,2.16-2.16s-.97-2.16-2.16-2.16-2.16.97-2.16,2.16.97,2.16,2.16,2.16Z"/>
          <path class="cls-4" d="m0,16.56c1.19,0,2.16-.97,2.16-2.16s-.97-2.16-2.16-2.16-2.16.97-2.16,2.16.97,2.16,2.16,2.16Z"/>
        </g>
        <g>
          <path class="cls-4" d="m28.8,2.16c1.19,0,2.16-.97,2.16-2.16s-.97-2.16-2.16-2.16-2.16.97-2.16,2.16.97,2.16,2.16,2.16Z"/>
          <path class="cls-4" d="m14.4,2.16c1.19,0,2.16-.97,2.16-2.16s-.97-2.16-2.16-2.16-2.16.97-2.16,2.16.97,2.16,2.16,2.16Z"/>
        </g>
        <path class="cls-4" d="m0,2.16c1.19,0,2.16-.97,2.16-2.16S1.19-2.16,0-2.16-2.16-1.19-2.16,0-1.19,2.16,0,2.16Z"/>
      </g>
    </pattern>
  </defs>
  <g id="Text_Effect" data-name="Text Effect">
    <g id="Background">
      <g>
        <path class="cls-2" d="m77.39,559.99c-.25,8.57,14.11,9.48,14.58,11.46l-3.67,110.96c-1.02,1.42-1.39.89-2.68.56-8.42-2.16-23.43-14.21-29.12-20.97-53.94-64.05,17.16-166.46,20.81-237.81,1.06-20.83-3.53-41.56-6.25-62.06,14.99,1.49,31.72-2.83,46.45-1.1,1.05.12,3.6.48,3.6,1.62v53.2c-.2,1.22-2.47,3.65-3.65,3.65h-22.41l-2.09,39.64,23.98-1.05v32.86c0,4.49-24.43-1.63-26.89,1.79-1.16,1.61-1.97,14.39-2.61,17.72-2.75,14.4-9.66,35.79-10.06,49.51Zm91.61-315.27l-.83,1.26c.33,16.94-.93,34.09-.19,51.01.21,4.76.61,11.99,1.19,16.54.15,1.21.76,4.03,1.45,4.81,3.33,3.77,46.62,2.67,47.51,5.84-1.77,5.18.17,23.28-2.04,26.07-3.06,3.86-16.39,2.3-20.96,1.46v-16.69c-4.61-.56-24.19-3.88-26.6-1.05-4.04,4.75.21,35.87-2.15,43.83,1.46,1.5,3.28,1.87,5.27,2.1,11.14,1.28,25.9-.29,37.59-.06,7.65.15,16.48,2.54,24.47.58,1.99-1.19,9.09-30.17,10.08-34.77,2.53-11.7,6.63-30.95,6.66-42.48,0-.98.36-2.19-.69-2.69-16.13-3.87-32.84-6.11-49.44-7.18.55-7.21-.56-14.15-3.12-20.87h15.12c9.05,0,4.3,11.99,8.47,13.43,7.84-1.2,21.9,3.33,28.91,1.03,1.79-.59,2.57-9.38,2.74-11.86.41-5.97-.14-12.13-.13-18.1-26.63-8.92-55.2-13.52-83.32-12.21ZM38.98,113.58C93.88,107.54,104.26-8.05,41.62.45c-51.07,6.92-58.8,119.31-2.64,113.14Zm45.64,240.22c-.54-14.32-5.86-28.01-9.38-41.73h21.89l3.13,40.68h21.89l-2.08-101.19c-4.67,1.55-24.71-2.3-27.18-.58-3.25,2.26,2.69,28.57-.39,32.99-1.29,1.85-14.63.83-17.83.93-4.33.13-7.12,3.21-10.1-1.28-1.98-2.97-5.35-13.16-6.79-17.2-3.04-8.54-5.27-17.5-7.66-26.23-10.5-.88-20.83,1.51-31.13,3.07-2.04,2.15,5.86,21.8,7.4,25.37,12.26,28.52,32.3,54.55,40.51,85.16h17.72ZM17.52,236.88c-2.26-.78-3.28-11.26-3.66-14.12-3.07-23.38.28-57.68,10.11-79.33,3.41-7.51,7.81-10.35,14.76-14.44,9.65-5.67,22.06-11.04,33.33-10.87l15.24,124.14c-24.04,7.43-21.73-17.06-27.27-32.48l-18.09,2.21.97,21.84c-5.12-.88-21.97,4.22-25.39,3.05Zm24.36-49.98l15.2-2.02-2.7-18.84c-13.63.21-11.67,10.4-12.5,20.87Zm39.02-69.89c-1.09,1.79,4.4,36.31,3.73,41.72h10.42s1.09,84.45,1.09,84.45c1.09,1.12,22.41,1.74,23.99.64.44-.31.71-.73.83-1.26l.29-92.03c3.81-2.35,37.5,8.98,43.64,11.33.56-9.71,2.94-19.63,2.64-29.2-20-12.44-47.16-19.99-70.96-18.82-3.05.15-14.45,1.19-15.66,3.17Zm138.74,74.07c3.35-.23,7.36.47,10.45,0,2.99-.46,1.53-2.82.56-4.78-3.4-6.88-19.84-23.67-26.13-29.14-3.48-3.02-27.52-21.62-30.24-19.29-1.26,6.71-2.42,13.55-3.13,20.35-.24,2.29,1.07,10.19-1.65,10.84l-42.14-10.33v84.49c3.81-.1,27.74-.59,28.74-2.02l-2.67-50.13c22.02,5.92,44.06,1.55,66.21,0Zm9.42,196.05c-17.37-1.91-36.46.96-53.74,1.09-11.36.09-23.56-1.85-35.45-1.04-3.28.45-7.95-1.18-10.43,1.04-1.54.51-.95,1.39-1.09,2.55,2.79,30.93-3.55,67.98,0,98.16.12,1.05.48,3.6,1.62,3.6h44.31l.99-30.2c-8.2-1.71-16.62-.96-24.97-1.09v-19.82c4.72-.58,17.72,2.44,17.72-4.69v-16.17c0-.57-9.95,0-11.47,0h-7.3c-.96-.8-1.05-.5-1.04-2.09,0-.64,0-1.51,0-2.27v-.86c0-1.55-.28-3.92,0-5.22l1.04-1.04c1.03-1.02.72-.73,2.09-1.04h.57c.43,0,1.03.02,1.52,0,6.6-.32,15.18.48,21.89,1.04,3.83.32,7.64.68,11.46,1.05l-3.12,82.4,23.84.89,9.68-80.55c1.11-3.38,7.36-.73,9.1-1.84.97-.62,6.56-21.09,6.29-22.21-.38-1.58-2.2-1.56-3.49-1.7Zm23.4-140.77c-.33-17.13-4.15-32.98-12.67-47.82-25.94-.27-52.14,4.24-78.02.88.01,11.72,1.81,23.39,4.33,34.78l86.36,12.16ZM116.65,89.65c22.39,4.58,33.67-19.78,31.45-38.77-1.67-14.34-14.86-30.14-30.4-27.5-24.99,4.24-24.39,61.5-1.05,66.27Zm40.42,288.14c.11,0,1.56-1.45,1.56-1.56v-86.58c0-.56-1.61-2.32-1.04-3.65h-28.15l2.09,91.8h25.54Zm49,122.05h-104.78l-1.95,185.02c1.48,4.33,19.02,2.05,23.04,1.41,4.78-.75,27.37-6.72,28.79-10.84l2.25-75.46c-8.72.71-17.24,2.87-26.06,2.09v-16.17c0-3.16,21.51-.27,24.91-2.72-.22-7.52.72-15.35.11-22.84-.08-1.01.17-2.21,0-3.13l1.05-7.31h-25.03s0-20.34,0-20.34c0-2.83,7.04-.53,8.82-.47,9.44.28,20.39.43,29.76-.05.93,5.01,1.16,10.05,1.08,15.17-.4,26.96-3.53,54.23-4.26,81.27-.36,13.38.37,26.84.05,40.21,2.14,2.18,10.97-8.95,12.48-10.97,23.32-31.15,22.38-74.45,26.09-111.59,1.04-10.4,3.17-20.95,4.16-31.31.23-2.39.9-7.78.85-9.63-.02-.99-.73-2.35-1.36-2.35Zm-28.21-389.16c12.09-1.91,18.7-20.72,17.01-31.5-1.76-11.23-14.72-25.85-27.11-23.5-20.39,3.87-20.08,59.78,10.1,55Zm17.38,10.91c1.56,13.03,14.6,22.89,26.46,14.19,17.33-12.71,8.16-46.89-13.31-42.52-11.08,2.26-14.29,18.84-13.15,28.33Zm53.11,50.24c10-3.07,10.95-27.67,3.82-33.65-4.75-3.99-15.11-3.3-19.5,1.27-11.73,12.2-3.5,38.26,15.68,32.38Zm-119.49,104.85c1.16,1.67,24.39.96,28.74,2.02-.61-10.16,1.06-20.27-.02-30.24-4.72.57-26.42.11-28.76,1.97-1.43,1.14-1.62,3.06-1.56,4.78,2.38,4.43-.19,18.9,1.6,21.47Z"/>
        <path class="cls-3" d="m77.39,559.99c-.25,8.57,14.11,9.48,14.58,11.46l-3.67,110.96c-1.02,1.42-1.39.89-2.68.56-8.42-2.16-23.43-14.21-29.12-20.97-53.94-64.05,17.16-166.46,20.81-237.81,1.06-20.83-3.53-41.56-6.25-62.06,14.99,1.49,31.72-2.83,46.45-1.1,1.05.12,3.6.48,3.6,1.62v53.2c-.2,1.22-2.47,3.65-3.65,3.65h-22.41l-2.09,39.64,23.98-1.05v32.86c0,4.49-24.43-1.63-26.89,1.79-1.16,1.61-1.97,14.39-2.61,17.72-2.75,14.4-9.66,35.79-10.06,49.51Zm91.61-315.27l-.83,1.26c.33,16.94-.93,34.09-.19,51.01.21,4.76.61,11.99,1.19,16.54.15,1.21.76,4.03,1.45,4.81,3.33,3.77,46.62,2.67,47.51,5.84-1.77,5.18.17,23.28-2.04,26.07-3.06,3.86-16.39,2.3-20.96,1.46v-16.69c-4.61-.56-24.19-3.88-26.6-1.05-4.04,4.75.21,35.87-2.15,43.83,1.46,1.5,3.28,1.87,5.27,2.1,11.14,1.28,25.9-.29,37.59-.06,7.65.15,16.48,2.54,24.47.58,1.99-1.19,9.09-30.17,10.08-34.77,2.53-11.7,6.63-30.95,6.66-42.48,0-.98.36-2.19-.69-2.69-16.13-3.87-32.84-6.11-49.44-7.18.55-7.21-.56-14.15-3.12-20.87h15.12c9.05,0,4.3,11.99,8.47,13.43,7.84-1.2,21.9,3.33,28.91,1.03,1.79-.59,2.57-9.38,2.74-11.86.41-5.97-.14-12.13-.13-18.1-26.63-8.92-55.2-13.52-83.32-12.21ZM38.98,113.58C93.88,107.54,104.26-8.05,41.62.45c-51.07,6.92-58.8,119.31-2.64,113.14Zm45.64,240.22c-.54-14.32-5.86-28.01-9.38-41.73h21.89l3.13,40.68h21.89l-2.08-101.19c-4.67,1.55-24.71-2.3-27.18-.58-3.25,2.26,2.69,28.57-.39,32.99-1.29,1.85-14.63.83-17.83.93-4.33.13-7.12,3.21-10.1-1.28-1.98-2.97-5.35-13.16-6.79-17.2-3.04-8.54-5.27-17.5-7.66-26.23-10.5-.88-20.83,1.51-31.13,3.07-2.04,2.15,5.86,21.8,7.4,25.37,12.26,28.52,32.3,54.55,40.51,85.16h17.72ZM17.52,236.88c-2.26-.78-3.28-11.26-3.66-14.12-3.07-23.38.28-57.68,10.11-79.33,3.41-7.51,7.81-10.35,14.76-14.44,9.65-5.67,22.06-11.04,33.33-10.87l15.24,124.14c-24.04,7.43-21.73-17.06-27.27-32.48l-18.09,2.21.97,21.84c-5.12-.88-21.97,4.22-25.39,3.05Zm24.36-49.98l15.2-2.02-2.7-18.84c-13.63.21-11.67,10.4-12.5,20.87Zm39.02-69.89c-1.09,1.79,4.4,36.31,3.73,41.72h10.42s1.09,84.45,1.09,84.45c1.09,1.12,22.41,1.74,23.99.64.44-.31.71-.73.83-1.26l.29-92.03c3.81-2.35,37.5,8.98,43.64,11.33.56-9.71,2.94-19.63,2.64-29.2-20-12.44-47.16-19.99-70.96-18.82-3.05.15-14.45,1.19-15.66,3.17Zm138.74,74.07c3.35-.23,7.36.47,10.45,0,2.99-.46,1.53-2.82.56-4.78-3.4-6.88-19.84-23.67-26.13-29.14-3.48-3.02-27.52-21.62-30.24-19.29-1.26,6.71-2.42,13.55-3.13,20.35-.24,2.29,1.07,10.19-1.65,10.84l-42.14-10.33v84.49c3.81-.1,27.74-.59,28.74-2.02l-2.67-50.13c22.02,5.92,44.06,1.55,66.21,0Zm9.42,196.05c-17.37-1.91-36.46.96-53.74,1.09-11.36.09-23.56-1.85-35.45-1.04-3.28.45-7.95-1.18-10.43,1.04-1.54.51-.95,1.39-1.09,2.55,2.79,30.93-3.55,67.98,0,98.16.12,1.05.48,3.6,1.62,3.6h44.31l.99-30.2c-8.2-1.71-16.62-.96-24.97-1.09v-19.82c4.72-.58,17.72,2.44,17.72-4.69v-16.17c0-.57-9.95,0-11.47,0h-7.3c-.96-.8-1.05-.5-1.04-2.09,0-.64,0-1.51,0-2.27v-.86c0-1.55-.28-3.92,0-5.22l1.04-1.04c1.03-1.02.72-.73,2.09-1.04h.57c.43,0,1.03.02,1.52,0,6.6-.32,15.18.48,21.89,1.04,3.83.32,7.64.68,11.46,1.05l-3.12,82.4,23.84.89,9.68-80.55c1.11-3.38,7.36-.73,9.1-1.84.97-.62,6.56-21.09,6.29-22.21-.38-1.58-2.2-1.56-3.49-1.7Zm23.4-140.77c-.33-17.13-4.15-32.98-12.67-47.82-25.94-.27-52.14,4.24-78.02.88.01,11.72,1.81,23.39,4.33,34.78l86.36,12.16ZM116.65,89.65c22.39,4.58,33.67-19.78,31.45-38.77-1.67-14.34-14.86-30.14-30.4-27.5-24.99,4.24-24.39,61.5-1.05,66.27Zm40.42,288.14c.11,0,1.56-1.45,1.56-1.56v-86.58c0-.56-1.61-2.32-1.04-3.65h-28.15l2.09,91.8h25.54Zm49,122.05h-104.78l-1.95,185.02c1.48,4.33,19.02,2.05,23.04,1.41,4.78-.75,27.37-6.72,28.79-10.84l2.25-75.46c-8.72.71-17.24,2.87-26.06,2.09v-16.17c0-3.16,21.51-.27,24.91-2.72-.22-7.52.72-15.35.11-22.84-.08-1.01.17-2.21,0-3.13l1.05-7.31h-25.03s0-20.34,0-20.34c0-2.83,7.04-.53,8.82-.47,9.44.28,20.39.43,29.76-.05.93,5.01,1.16,10.05,1.08,15.17-.4,26.96-3.53,54.23-4.26,81.27-.36,13.38.37,26.84.05,40.21,2.14,2.18,10.97-8.95,12.48-10.97,23.32-31.15,22.38-74.45,26.09-111.59,1.04-10.4,3.17-20.95,4.16-31.31.23-2.39.9-7.78.85-9.63-.02-.99-.73-2.35-1.36-2.35Zm-28.21-389.16c12.09-1.91,18.7-20.72,17.01-31.5-1.76-11.23-14.72-25.85-27.11-23.5-20.39,3.87-20.08,59.78,10.1,55Zm17.38,10.91c1.56,13.03,14.6,22.89,26.46,14.19,17.33-12.71,8.16-46.89-13.31-42.52-11.08,2.26-14.29,18.84-13.15,28.33Zm53.11,50.24c10-3.07,10.95-27.67,3.82-33.65-4.75-3.99-15.11-3.3-19.5,1.27-11.73,12.2-3.5,38.26,15.68,32.38Zm-119.49,104.85c1.16,1.67,24.39.96,28.74,2.02-.61-10.16,1.06-20.27-.02-30.24-4.72.57-26.42.11-28.76,1.97-1.43,1.14-1.62,3.06-1.56,4.78,2.38,4.43-.19,18.9,1.6,21.47Z"/>
      </g>
    </g>
  </g>
</svg>