<?xml version="1.0" encoding="UTF-8"?>
<svg xmlns="http://www.w3.org/2000/svg" xmlns:xlink="http://www.w3.org/1999/xlink" viewBox="0 0 1242.2 1737.1">
  <defs>
    <style>
      .cls-1 {
        isolation: isolate;
      }

      .cls-2 {
        fill: url(#_10_dpi_40_);
      }

      .cls-3 {
        fill: none;
      }

      .cls-4 {
        fill: #231f20;
      }

      .cls-5 {
        mix-blend-mode: overlay;
        opacity: .15;
      }
    </style>
    <pattern id="_10_dpi_40_" data-name="10 dpi 40%" x="0" y="0" width="28.8" height="28.8" patternTransform="translate(-2636.13 -1021.01) rotate(-7)" patternUnits="userSpaceOnUse" viewBox="0 0 28.8 28.8">
      <g>
        <rect class="cls-3" x="0" y="0" width="28.8" height="28.8"/>
        <g>
          <path class="cls-4" d="m28.8,31.68c1.59,0,2.88-1.29,2.88-2.88s-1.29-2.88-2.88-2.88-2.88,1.29-2.88,2.88,1.29,2.88,2.88,2.88Z"/>
          <path class="cls-4" d="m14.4,31.68c1.59,0,2.88-1.29,2.88-2.88s-1.29-2.88-2.88-2.88-2.88,1.29-2.88,2.88,1.29,2.88,2.88,2.88Z"/>
          <path class="cls-4" d="m28.8,17.28c1.59,0,2.88-1.29,2.88-2.88s-1.29-2.88-2.88-2.88-2.88,1.29-2.88,2.88,1.29,2.88,2.88,2.88Z"/>
          <path class="cls-4" d="m14.4,17.28c1.59,0,2.88-1.29,2.88-2.88s-1.29-2.88-2.88-2.88-2.88,1.29-2.88,2.88,1.29,2.88,2.88,2.88Z"/>
          <path class="cls-4" d="m7.2,24.48c1.59,0,2.88-1.29,2.88-2.88s-1.29-2.88-2.88-2.88-2.88,1.29-2.88,2.88,1.29,2.88,2.88,2.88Z"/>
          <path class="cls-4" d="m21.6,24.48c1.59,0,2.88-1.29,2.88-2.88s-1.29-2.88-2.88-2.88-2.88,1.29-2.88,2.88,1.29,2.88,2.88,2.88Z"/>
          <path class="cls-4" d="m7.2,10.08c1.59,0,2.88-1.29,2.88-2.88s-1.29-2.88-2.88-2.88-2.88,1.29-2.88,2.88,1.29,2.88,2.88,2.88Z"/>
          <path class="cls-4" d="m21.6,10.08c1.59,0,2.88-1.29,2.88-2.88s-1.29-2.88-2.88-2.88-2.88,1.29-2.88,2.88,1.29,2.88,2.88,2.88Z"/>
        </g>
        <g>
          <path class="cls-4" d="m0,31.68c1.59,0,2.88-1.29,2.88-2.88S1.59,25.92,0,25.92s-2.88,1.29-2.88,2.88S-1.59,31.68,0,31.68Z"/>
          <path class="cls-4" d="m0,17.28c1.59,0,2.88-1.29,2.88-2.88S1.59,11.52,0,11.52s-2.88,1.29-2.88,2.88S-1.59,17.28,0,17.28Z"/>
        </g>
        <g>
          <path class="cls-4" d="m28.8,2.88c1.59,0,2.88-1.29,2.88-2.88s-1.29-2.88-2.88-2.88-2.88,1.29-2.88,2.88,1.29,2.88,2.88,2.88Z"/>
          <path class="cls-4" d="m14.4,2.88c1.59,0,2.88-1.29,2.88-2.88s-1.29-2.88-2.88-2.88-2.88,1.29-2.88,2.88,1.29,2.88,2.88,2.88Z"/>
        </g>
        <path class="cls-4" d="m0,2.88c1.59,0,2.88-1.29,2.88-2.88S1.59-2.88,0-2.88-2.88-1.59-2.88,0-1.59,2.88,0,2.88Z"/>
      </g>
    </pattern>
  </defs>
  <g class="cls-1">
    <g id="Layer_2" data-name="Layer 2">
      <g id="Text_Effect" data-name="Text Effect">
        <g id="Background">
          <g class="cls-5">
            <polygon class="cls-2" points="1242.2 1734.35 4.42 1737.1 0 2.75 1237.78 0 1242.2 1734.35"/>
          </g>
        </g>
      </g>
    </g>
  </g>
</svg>