<?xml version="1.0" encoding="UTF-8"?>
<svg id="Layer_2" data-name="Layer 2" xmlns="http://www.w3.org/2000/svg" viewBox="0 0 242 188.02">
  <defs>
    <style>
      .cls-1 {
        font-family: MoonTime-Regular, MoonTime;
        font-size: 31.28px;
      }

      .cls-1, .cls-2 {
        fill: teal;
      }

      .cls-2 {
        font-family: Horizon-Bold, Horizon;
        font-size: 20.29px;
        font-weight: 700;
      }

      .cls-3 {
        fill: #545454;
      }

      .cls-4 {
        fill: #c50;
      }
    </style>
  </defs>
  <g id="Text_Effect" data-name="Text Effect">
    <g id="Background">
      <g>
        <g>
          <g>
            <path class="cls-3" d="m128.56,0c5.6,19.62,24.24,41.94,44.39,47.4,9.02,2.45,18.58,1.61,27.38,5.26,9.77,4.05,19.45,14.95,22.48,25.04-7.21-7.65-16.02-15.94-27.17-15.23-3.68.24-7.8,3.02-9.69,6.26-5.75,9.83,2.51,24.03,8.61,31.82,6.54,8.34,13.36,14.08,22.69,19.39,5.23,2.97,11.89,6.76,17.89,7.14v.73c-15.88,2.9-29.57-2.55-43-10.31-12.21-7.05-27.59-22.1-42.22-20.94-15.59,1.24-9.9,20.52-9.04,30.9.07.79.53,2.71-.71,2.52-5.8-11.82-12.09-24.78-14.88-37.75-1.26-5.84-2.67-12.9,5.79-12.36,7.36.47,23.01,10.57,28.68,3.1,4.29-5.66-2.06-15.59-5.09-20.89-11.18-19.59-29.25-37.26-26.83-62.08h.73Z"/>
            <path class="cls-3" d="m174.06,7.42c18.89-2.73,20.75,30.14,2.61,31.03-17.51.85-19.18-28.63-2.61-31.03Z"/>
          </g>
          <g>
            <path class="cls-4" d="m115.9,0c-5.6,19.62-24.24,41.94-44.39,47.4-9.02,2.45-18.58,1.61-27.38,5.26-9.77,4.05-19.45,14.95-22.48,25.04,7.21-7.65,16.02-15.94,27.17-15.23,3.68.24,7.8,3.02,9.69,6.26,5.75,9.83-2.51,24.03-8.61,31.82-6.54,8.34-13.36,14.08-22.69,19.39-5.23,2.97-11.89,6.76-17.89,7.14v.73c15.88,2.9,29.57-2.55,43-10.31,12.21-7.05,27.59-22.1,42.22-20.94,15.59,1.24,9.9,20.52,9.04,30.9-.07.79-.53,2.71.71,2.52,5.8-11.82,12.09-24.78,14.88-37.75,1.26-5.84,2.67-12.9-5.79-12.36-7.36.47-23.01,10.57-28.68,3.1-4.29-5.66,2.06-15.59,5.09-20.89C100.97,42.49,119.04,24.82,116.63,0h-.73Z"/>
            <path class="cls-4" d="m70.4,7.42c-18.89-2.73-20.75,30.14-2.61,31.03,17.51.85,19.18-28.63,2.61-31.03Z"/>
          </g>
        </g>
        <text class="cls-2" transform="translate(0 153.53)"><tspan x="0" y="0">STALAB STUDIO</tspan></text>
        <text class="cls-1" transform="translate(58.46 175.51)"><tspan x="0" y="0">katika na kavata</tspan></text>
      </g>
    </g>
  </g>
</svg>