<?xml version="1.0" encoding="UTF-8"?>
<svg id="Layer_2" data-name="Layer 2" xmlns="http://www.w3.org/2000/svg" viewBox="0 0 107.24 143.69">
  <defs>
    <style>
      .cls-1 {
        fill: #270280;
      }

      .cls-2 {
        fill: #84868c;
      }

      .cls-3 {
        fill: #7272ae;
      }

      .cls-4 {
        fill: #ffc829;
      }
    </style>
  </defs>
  <g id="Text_Effect" data-name="Text Effect">
    <g id="Background">
      <g>
        <g>
          <path class="cls-1" d="m86.64,113.35c-.4.2-.76.43-1.16.57-1.73.62-3.33,1.5-4.87,2.49-1.16.75-2.29,1.54-3.26,2.53-.8.81-1.51,1.7-1.85,2.81-.1.32-.1.69-.05,1.02.05.36.48.59.83.56,1.27-.1,2.31-.67,3.19-1.54,1.14-1.13,2.19-2.33,3.17-3.6.52-.67,1.07-1.31,1.67-1.9.62-.61,1.21-.7,2.01-.29.34.18.45.39.36.73-.27,1.08-.56,2.16-.79,3.25-.18.84-.29,1.7-.4,2.55-.03.22.02.46.07.68.09.41.43.59.86.46.56-.16,1.02-.49,1.43-.88.57-.54,1.13-1.1,1.69-1.65,2.03-1.98,4.06-3.95,6.07-5.95.48-.48,1-.51,1.62-.38,1.14.23,1.48,1.07,1.62,2.05.2,1.39.26,2.79.7,4.14.27.81.57,1.62,1.16,2.27.8.87,1.63.82,2.51.29.63-.37,1.17-.87,1.74-1.34.41-.34.8-.73,1.2-1.09.23-.21.51-.23.75-.08.27.16.4.44.24.73-.27.49-.55.99-.91,1.41-1.13,1.32-2.56,2.28-4.07,3.1-.75.4-1.57.69-2.45.72-.43.02-.88.03-1.31-.02-.5-.05-.86-.38-1.17-.74-1.28-1.48-1.75-3.31-2.26-5.13-.22-.79-.37-1.6-.56-2.43-.4.34-.82.67-1.21,1.04-.89.85-1.76,1.71-2.63,2.57-.57.56-1.11,1.16-1.73,1.67-.99.82-2.04,1.58-3.35,1.82-.63.12-1.25-.03-1.83-.33-.67-.35-1.08-.86-1.22-1.59-.02-.09-.03-.2-.02-.29.06-.66.14-1.33.21-1.99-.34.36-.7.76-1.07,1.14-.57.57-1.13,1.16-1.73,1.7-.44.39-.91.75-1.41,1.06-.75.47-1.58.72-2.46.78-.46.03-.93.09-1.38.04-.54-.06-1.08-.16-1.58-.36-.49-.19-.67-.7-.7-1.2-.02-.39,0-.8.09-1.18.12-.59.31-1.16.45-1.65-.8.76-1.64,1.63-2.56,2.41-.93.78-1.95,1.47-2.97,2.24.26.25.51.46.73.7.79.85,1.49,1.75,2.02,2.8.31.62.43,1.26.47,1.91.05.73-.2,1.42-.59,2.06-.58.96-1.4,1.64-2.38,2.14-.78.4-1.62.64-2.5.67-.73.02-1.47.09-2.19.03-.98-.08-1.92-.38-2.63-1.08-.84-.83-1.27-1.83-1.02-3.07.19-.96.65-1.76,1.28-2.48.92-1.05,1.92-2,3.03-2.85.13-.1.25-.21.4-.34-1.18-.57-2.27-1.17-3-2.23-.73-1.06-.92-2.25-.76-3.55-.47.48-.95.96-1.42,1.44-.57.57-1.13,1.15-1.73,1.7-.5.46-1.07.83-1.74,1-.78.19-1.57.36-2.33-.05-.53-.28-.8-.8-1.06-1.29-.42-.81-.78-1.65-1.19-2.47-.18-.37-.38-.74-.62-1.07-.28-.37-.71-.58-1.18-.61-.86-.05-1.71.05-2.43.54-.45.31-.93.68-1.21,1.14-.83,1.38-1.56,2.83-2.34,4.24-.23.41-.44.83-.87,1.09-.43.27-.9.35-1.39.29-.18-.02-.38-.03-.55-.08-.36-.12-.5-.42-.42-.8.3-1.39.59-2.78.87-4.17.2-.98.42-1.95.6-2.93.11-.57.18-1.14.24-1.72.02-.22-.06-.44-.11-.73-.41.21-.75.37-1.08.57-1.04.63-2.02,1.33-2.91,2.17-.8.76-1.61,1.51-2.43,2.24-.22.2-.45.43-.82.34-.44-.1-.64-.44-.43-.88.14-.29.33-.57.56-.8,1.27-1.28,2.55-2.55,3.84-3.82.67-.66,1.33-1.34,2.02-1.97,1.16-1.04,2.26-2.15,3.59-2.97.41-.25.88-.41,1.34-.58.27-.1.63.09.75.39.1.25.18.52.19.78.07,1.51-.31,2.96-.72,4.4-.32,1.14-.71,2.26-1.09,3.48.41-.44.77-.83,1.15-1.21.7-.69,1.38-1.4,2.12-2.05.44-.39.97-.7,1.49-.99.68-.37,1.42-.5,2.18-.3.45.12.84.37,1.13.74.59.75.92,1.64,1.14,2.56.32,1.32.63,2.65.96,3.97.05.2.15.39.26.56.12.18.31.31.53.19.52-.29,1.08-.55,1.53-.92.67-.56,1.26-1.22,1.9-1.83.95-.9,1.92-1.77,2.85-2.69.17-.17.23-.48.31-.74.44-1.53,1.1-2.97,2.11-4.2,1.07-1.31,2.39-2.35,4.08-2.76.79-.2,1.61-.19,2.39.12.32.13.47.44.41.77-.12.61-.43,1.12-.87,1.53-.97.89-1.99,1.73-2.98,2.6-.78.69-1.58,1.36-2.27,2.12-.49.53-.89,1.17-1.19,1.82-.25.55-.29,1.18-.18,1.82.18,1.02.68,1.86,1.34,2.62.51.59,1.06,1.16,1.63,1.77,1.25-.92,2.49-1.79,3.67-2.74.64-.52,1.18-1.17,1.77-1.77.85-.88,1.67-1.79,2.57-2.63,1.25-1.17,2.59-2.26,4-3.24,1.01-.7,2.04-1.35,3.15-1.85,1.05-.46,2.14-.88,3.3-.93.73-.03,1.68.39,2.05.86m-21.35,14.87c-.09.05-.17.07-.23.11-1.22.91-2.37,1.89-3.31,3.1-.47.61-.84,1.32-.8,2.09.06,1.16.69,1.82,1.95,1.93.86.07,1.67-.08,2.44-.48.91-.48,1.74-1.02,2.2-2,.29-.61.22-1.23-.03-1.79-.51-1.14-1.41-2-2.22-2.96"/>
          <path class="cls-1" d="m5.2,114.01c.13-1.19.25-2.38.39-3.55.15-1.29.31-2.57.51-3.85.17-1.11.43-2.2,1.14-3.12.14-.17.12-.32-.12-.38-.34-.09-.69-.18-1.03-.3-.62-.22-.79-.56-.66-1.19.16-.79.92-1.36,1.61-1.44.75-.09,1.48.02,2.23.09.95.09,1.87.31,2.76.63,1.24.45,2.37,1.09,3.36,1.98.95.85,1.8,1.79,2.43,2.9.41.72.71,1.49.8,2.35.05.5.03.97-.12,1.42-.13.37-.37.72-.63,1.02-.82.96-1.86,1.64-2.98,2.2-.83.41-1.66.83-2.51,1.2-.84.36-1.7.66-2.59.99.45.88.85,1.8,1.37,2.67.7,1.18,1.45,2.34,2.25,3.46.6.85,1.27,1.64,1.95,2.42.62.71,1.27,1.41,1.97,2.05.81.76,1.67,1.47,2.55,2.15.56.43.8.93.69,1.61-.04.22-.12.41-.42.28-.69-.31-1.41-.57-2.07-.94-.88-.49-1.74-1.02-2.58-1.59-.6-.41-1.15-.9-1.69-1.39-.55-.5-1.07-1.02-1.59-1.55-.94-.97-1.7-2.07-2.38-3.22-.64-1.08-1.26-2.17-1.89-3.28-.04.46-.09.9-.11,1.34-.04.67-.07,1.34-.09,2.01-.02.64-.04,1.29-.02,1.93.02.53.11,1.06.17,1.59.04.33-.14.49-.42.57-.18.05-.36.1-.54.11-.7.02-1.43.25-2.09-.13-.15-.08-.27-.29-.32-.46-.26-.89-.14-1.82-.1-2.72.05-1,.23-1.99.34-2.99.06-.53.11-1.06.16-1.6.03-.28.04-.57.08-.85.04-.26-.08-.41-.3-.52-.54-.3-.73-.96-.41-1.46.06-.09.17-.15.27-.2.21-.09.43-.15.64-.23m3.12-.42c1.08-.36,2.15-.68,3.19-1.07,1.31-.49,2.62-.99,3.73-1.9,1.06-.87,1.31-1.85.5-2.96-.64-.87-1.52-1.46-2.44-1.98-1.06-.6-2.22-.98-3.44-1.28-.92,2.96-1.52,5.98-1.54,9.19"/>
          <path class="cls-1" d="m20,120.24c-.51.52-.96.99-1.42,1.45-.33.33-.56.37-.82.16-.36-.29-.46-.71-.19-1.05.3-.39.65-.74.98-1.1.79-.86,1.62-1.68,2.35-2.59.63-.78,1.01-1.71,1.3-2.67.24-.8.71-1.46,1.24-2.09.52-.62,1.1-1.17,1.78-1.59.68-.42,1.42-.77,2.22-.89.61-.1.77.2.71,1-.01.14-.05.27-.08.42.71-.09,1.39-.24,2.06-.25.58,0,1.18.08,1.74.23,1.14.31,1.82,1.11,2.18,2.2.32.97.35,1.95.26,2.97-.1,1.07-.33,2.1-.72,3.1-.39.99-.96,1.87-1.68,2.66-.97,1.06-2.09,1.93-3.38,2.55-.62.3-1.29.57-2.03.58-.41,0-.83.13-1.24.11-1.03-.05-2.05-.13-3.02-.5-1.22-.46-2.03-1.31-2.25-2.61-.09-.5,0-1.02,0-1.54v-.54m6.41,3.15c.26-.02.62,0,.94-.09.83-.23,1.6-.58,2.31-1.1,1.14-.83,1.91-1.9,2.26-3.25.12-.47.15-.97.17-1.46,0-.39-.05-.78-.12-1.17-.1-.56-.29-1.1-.67-1.53-.85-.94-1.94-.94-3.07-.7-.8.17-1.26.79-1.78,1.33-.27.28-.52.7-.85.79-.47.13-.64.4-.77.78-.48,1.47-.72,2.97-.51,4.52.16,1.18.73,1.82,2.09,1.87"/>
          <path class="cls-1" d="m80.09,109.59c.31-1.08.6-2.17.95-3.24.21-.66.46-1.31.99-1.82.47-.46,1.28-.43,1.79-.15.48.27.79.63.73,1.2-.08.87-.52,1.52-1.26,1.99l-.06.07c.23.04.62-.11.91-.38.43-.39.83-.81,1.28-1.18.73-.59,1.46-1.18,2.24-1.7.25-.17.64-.15.96-.16.24,0,.36.18.34.43-.06.56-.36.99-.82,1.27-.4.25-.86.4-1.29.6-.13.06-.36.17-.35.22.04.2.1.44.24.57.28.26.63.26.97.1.16-.08.34-.16.47-.28.51-.47,1-.96,1.49-1.45l.09-.23c.04-.56.03-1.13.1-1.68.12-.94.24-1.9.83-2.71.16-.22.39-.42.62-.57.29-.19.6-.07.68.26.08.31.15.65.12.96-.08,1-.43,1.94-.97,2.77-.38.58-.25,1.14-.23,1.72,0,.27.09.57.24.79.35.5,1.06.5,1.53.06.16-.15.31-.33.49-.45.08-.06.23-.01.34-.01,0,.12.05.28-.01.35-.57.65-1.2,1.24-2.13,1.27-.87.02-1.39-.44-1.5-1.32-.02-.19-.06-.38-.09-.61-.35.36-.65.73-1.01,1.03-.37.31-.77.62-1.22.8-.73.29-1.77.11-1.98-.8-.04-.18-.03-.37-.12-.62-.26.28-.51.59-.8.84-.46.4-1.01.65-1.63.68-.49.03-.98.02-1.47-.01-.28-.02-.41.07-.49.34-.24.79-.51,1.56-.76,2.35-.08.24-.21.39-.49.45-.3.07-.47-.07-.48-.28-.04-.71-.03-1.43-.02-2.14,0-.38.06-.76.1-1.15.04-.36.08-.71.06-1.14-.24.26-.46.55-.73.79-.35.3-.73.59-1.25.56-.53-.03-.84-.43-.69-.94l.03-.15-.1-.09c-.2.23-.39.47-.6.69-.43.46-.97.67-1.61.67-.84,0-.82-.36-.72-1v-.19c-.22.21-.44.42-.66.62-.75.74-1.69.52-2.04-.46-.12-.34-.22-.69-.35-1.14-.31.48-.59.89-.85,1.31-.13.21-.26.43-.34.67-.12.37-.39.4-.8.33-.35-.06-.34-.34-.34-.61,0-.29,0-.57,0-.86l-.02-.1-.22.19c-.56.75-1.33,1.03-2.24,1.11-.6.05-1.17.01-1.7-.28-.87-.49-1.32-1.24-1.4-2.24-.1-1.41.4-2.63,1.14-3.78.48-.76,1.19-1.17,2.1-1.19.31,0,.61-.05.92-.05.68,0,1.13.36,1.2,1.03.07.66.11,1.35-.31,1.95-.08.12-.16.24-.27.33-.32.27-.64.16-.74-.23-.12-.47.13-1.47.46-1.83-.64-.75-1.74-.69-2.32.16-.46.67-.78,1.41-.83,2.23-.04.58-.04,1.16-.02,1.73.03.74.76,1.43,1.48,1.52.74.09,1.38-.14,1.95-.56.35-.26.65-.6.9-.96.15-.21.16-.51.2-.78.17-1.13.46-2.23.95-3.27.24-.5.53-.99,1.03-1.28.19-.11.4-.19.6-.22.47-.07.71.17.71.66,0,1.09-.47,2-1.08,2.85-.36.51-.81.95-1.18,1.45-.15.2-.22.46-.27.7-.1.47-.16.94-.19,1.41.39-.64.75-1.28,1.16-1.91.21-.32.46-.62.9-.69.3-.05.38.08.42.31.07.45.11.91.19,1.35.04.22.14.43.22.64.1.29.31.24.5.13.17-.1.32-.23.47-.35.82-.71,1.61-1.45,2.45-2.12.53-.42,1.16-.72,1.86-.72.2,0,.39.11.59.17v.11c-.29.12-.57.22-.82.37-.6.35-1.21.7-1.76,1.12-.36.27-.66.64-.76,1.11-.05.22.08.35.29.31.37-.08.7-.25.95-.53.41-.46.8-.96,1.22-1.41.13-.14.36-.24.56-.26.28-.03.39.11.3.43-.14.51-.21,1.04-.29,1.57-.02.09.03.27.08.29.1.02.24-.02.32-.08.97-.71,1.7-1.6,2.09-2.75.17-.51.36-1.02.57-1.52.07-.16.1-.43.39-.35.23.06.41.43.33.67-.25.78-.54,1.56-.73,2.36-.25,1.01-.42,2.04-.62,3.06-.06.31-.1.62-.15.92h.05m1.27-2c.52.02.98-.22,1.49-.7.41-.39.53-.82.31-1.35-.17-.41-.53-.49-.84-.18-.09.09-.19.2-.23.31-.25.62-.48,1.25-.73,1.91m-9.84-6.55c-.61.2-1.72,2.36-1.77,3.45.79-.58,1.9-2.76,1.77-3.45m19.9.76c-.58.68-.63,1.49-.62,2.32.38-.73.76-1.46.62-2.32m-4.7,4.2c.98-.17,1.72-.63,1.52-1.15-.58.26-1.05.65-1.52,1.15"/>
          <path class="cls-1" d="m45.84,103.45c.32,0,.62-.02.9.01.46.05.8.38.85.82.12.96-.05,1.86-.75,2.56-.42.42-.91.81-1.55.83-.43.02-.87.01-1.28-.1-.52-.13-.7-.46-.7-1,0-.09,0-.17,0-.31-.18.17-.34.29-.47.44-.63.71-1.4,1.16-2.35,1.28-.38.05-.5-.26-.33-.71.18-.48.33-.96.5-1.44.1-.3-.03-.52-.24-.74l-.18.13c-.62.61-1.24,1.21-1.86,1.82-.53.52-1.15.87-1.9.92-.31.02-.59-.16-.7-.45-.24-.62-.44-1.26-.66-1.89l-.04-.13c-.1.09-.19.17-.27.25-.52.48-1.03.99-1.57,1.45-.26.22-.57.38-.95.37-.64-.02-.91-.46-.69-1.22-.25.26-.46.49-.68.7-.48.47-1.05.73-1.74.69-.6-.04-.74-.31-.66-.78.02-.13.02-.26.03-.41l-.25-.04c-.13-.35.12-.53.3-.72.76-.81,1.64-1.48,2.63-1.99.57-.3,1.16-.3,1.62.04-.39.18-.76.33-1.11.52-.79.42-1.57.87-2.07,1.65-.13.2-.38.51-.11.68.16.11.56,0,.76-.13.33-.23.61-.56.89-.86.27-.3.51-.63.78-.92.09-.1.23-.17.36-.22.28-.1.52.09.46.38-.09.48-.22.95-.3,1.43-.03.17.01.34.02.52l.13.07c.25-.19.53-.35.76-.56.65-.62,1.3-1.25,1.93-1.88.22-.22.44-.36.75-.22.3.13.35.4.39.69.07.6.13,1.2.49,1.73.17.25.37.28.62.2.11-.03.22-.1.31-.17.75-.63,1.49-1.27,1.99-2.15-.07-.09-.14-.17-.22-.28.26-.28.53-.52.93-.58.42-.06.74.26.86.61.2.56.18,1.13,0,1.7-.13.39-.24.78-.38,1.25.17-.06.28-.08.37-.14.98-.65,1.88-1.39,2.41-2.46.21-.42.37-.87.77-1.15.27-.18.55-.35.85-.47.3-.11.32.16.35.38m1.09,1.91c-.05-.37-.09-.76-.47-.94-.34-.16-.68-.1-.97.15-.16.14-.31.29-.46.45-.11.12-.26.25-.29.4-.07.36-.09.74-.1,1.11,0,.31.31.6.6.57.92-.12,1.59-.78,1.68-1.74"/>
          <path class="cls-1" d="m48.49,105.93c-.26.27-.46.5-.68.71-.07.06-.19.04-.3.06-.02-.1-.09-.24-.04-.3.15-.23.32-.45.52-.63.41-.36.59-.76.57-1.32-.05-1.04.11-2.06.48-3.05.19-.51.49-.92.95-1.21.44-.28.8-.02.85.56.09.95-.19,1.81-.6,2.65-.23.48-.54.94-.65,1.45-.12.53-.07,1.1-.05,1.65,0,.15.19.38.32.4.17.02.44-.06.54-.19.21-.27.36-.59.48-.92.04-.1-.1-.26-.15-.39-.2-.44,0-.87.45-.97.25-.06.53-.03.65.2.09.18.1.45.04.65-.1.38-.01.89.28,1.13.18.15.4.17.59.01.35-.3.69-.61,1.03-.93.29-.27.59-.55.85-.84.21-.24.44-.28.73-.19.27.09.32.31.37.53.07.31.06.63.14.93.09.33.21.66.39.95.18.31.54.34.84.11.22-.17.4-.37.63-.53.11-.08.32-.16.41-.11.19.1.06.3-.02.41-.6.77-1.37,1.28-2.35,1.38-.31.03-.6-.15-.71-.47-.22-.62-.43-1.24-.64-1.86l-.06-.13c-.4.39-.79.77-1.18,1.14-.45.43-1.2.38-1.57-.11-.08-.1-.13-.22-.19-.31-.19.37-.35.75-.57,1.09-.32.48-1.21.69-1.67.36-.37-.27-.45-.71-.56-1.11-.06-.22-.06-.45-.11-.79m1.62-4.53c-.33.51-.67,1.99-.58,2.44.26-.8.61-1.54.58-2.44"/>
          <path class="cls-1" d="m24.32,102.59c-.36,1.2-.7,2.37-1.04,3.53-.14.48-.27.96-.41,1.44-.03.11-.06.26-.15.32-.12.09-.3.18-.45.17-.23-.02-.09-.2-.07-.33.24-1.38.48-2.76.71-4.14.17-.99.33-1.99.51-2.99l.17-.22c.21-.09.42-.17.65-.21.29-.05.43.13.51.39.34,1.07.67,2.14,1.03,3.2.26.76.57,1.51.86,2.26h.13c.21-.68.47-1.33.6-2.02.18-.93.26-1.87.38-2.82.04-.32.02-.64.1-.94.03-.11.25-.18.39-.24l.17.26c-.06.98-.1,1.97-.23,2.95-.14,1.08-.36,2.14-.57,3.21-.05.25-.15.5-.25.74-.16.36-.41.53-.78.49-.11-.01-.25-.11-.29-.21-.36-.75-.72-1.5-1.03-2.27-.33-.82-.6-1.66-.92-2.57"/>
          <path class="cls-1" d="m97.8,108.44c-.38-.06-.76-.11-1.13-.19-.41-.09-.65-.47-.6-.92.08-.78.42-1.46.88-2.07.32-.42.68-.84,1.09-1.18.36-.31.79-.58,1.24-.76.67-.26,1.07.05,1.36.59.42.79.57,1.64.33,2.52-.26.99-.92,1.59-1.89,1.83-.41.1-.84.12-1.27.17"/>
          <path class="cls-1" d="m87.66,139.11c-.37.81-.74,1.61-1.11,2.42-.17.36-.31.74-.49,1.1l-.23.12c-.36,0-.73,0-1.13,0-.02-1.67-.03-3.33-.05-5.01h1.04s-.04,3.71-.04,3.71c.59-1.27,1.16-2.48,1.72-3.7h1.2s-.04,3.78-.04,3.78l.07.02c.39-.9.79-1.8,1.18-2.7.14-.32.27-.64.42-.95l.2-.12c.3,0,.6,0,.94,0-.1.25-.17.46-.27.66-.66,1.37-1.32,2.74-1.98,4.11-.09.18-.19.26-.39.24-.31-.02-.62-.01-.98-.01l.04-3.65h-.1"/>
          <path class="cls-1" d="m3.79,140.3l-1.94-.02c.06-.31.12-.59.18-.89l3.12.03c-.05.7-.27,1.32-.75,1.86-.43.48-.95.78-1.58.81-.46.02-.95.03-1.38-.09-.33-.09-.63-.36-.89-.6-.39-.37-.51-.88-.54-1.4-.06-.89.17-1.69.83-2.33.7-.68,1.56-.84,2.5-.72.55.07,1.01.31,1.33.75.19.25.3.56.48.9-.42,0-.74,0-1.06-.01l-.19-.09c-.61-.73-1.38-.78-2.17-.21-.62.46-.81,1.59-.53,2.16.31.63,1.02.81,1.67.62.39-.12.71-.32.93-.76"/>
          <path class="cls-1" d="m23.3,142.41c.28,0,.55,0,.83.01l.19.14c.28.33.66.38,1.05.32.41-.07.63-.34.71-.75-1.07.49-1.95.03-2.29-.48-.59-.89-.5-2.07.33-2.82.59-.53,1.56-.83,2.6-.05.18-.42.32-.47,1.08-.34-.08.4-.15.8-.23,1.2-.18.85-.35,1.7-.56,2.54-.15.64-.41,1.23-1.14,1.4-.71.17-1.41.15-2.06-.25-.3-.18-.51-.54-.5-.92m3.14-2.23c.06-.45-.3-1-.9-1-.62,0-1.17.51-1.18,1.26,0,.56.4.98.95.99.61,0,1.11-.55,1.12-1.25"/>
          <path class="cls-1" d="m95.75,142.84c.25-1.2.5-2.37.74-3.54.08-.41.15-.82.24-1.22.02-.1.12-.26.18-.26.81.03,1.63-.11,2.43.18.7.26,1.12.77,1.22,1.48.1.69.02,1.37-.32,2.02-.45.84-1.18,1.25-2.08,1.33-.78.07-1.57,0-2.4,0m1.22-.79c.45-.06.84-.06,1.2-.17.88-.26,1.35-1.02,1.32-1.9-.02-.52-.26-.95-.76-1.14-.33-.12-.69-.14-1.05-.21-.24,1.15-.46,2.23-.71,3.41"/>
          <path class="cls-1" d="m29.71,142.19c.2-.99.4-2,.61-3.01.12-.6.23-1.2.36-1.79l.17-.15c.85.04,1.72-.13,2.55.24.66.29,1.03.8,1.1,1.49.06.65.04,1.31-.3,1.93-.41.73-1.01,1.23-1.84,1.3-.87.07-1.76,0-2.64,0m1.92-4.19c-.25,1.2-.47,2.29-.71,3.41.52,0,.98,0,1.42-.2.64-.3.97-.82,1.07-1.48.07-.48-.03-1.09-.55-1.35-.36-.19-.79-.25-1.24-.37"/>
          <path class="cls-1" d="m14.68,139.87c-.21.46-.43.91-.64,1.37-.11.24-.22.5-.34.73l-.22.14c-.24.02-.49,0-.79,0-.08-1.27-.15-2.53-.23-3.82h.94s-.03,2.39-.03,2.39h.11c.33-.67.66-1.35.97-2.05.12-.26.25-.41.56-.35.15.03.31,0,.49,0,.05.8.1,1.59.15,2.49.25-.49.46-.89.66-1.29.07-.14.13-.3.21-.44q.39-.78,1.29-.72c-.04.09-.06.18-.1.26-.54,1.06-1.1,2.11-1.63,3.18-.14.29-.31.42-.63.36-.14-.02-.29,0-.5,0-.07-.75-.14-1.5-.21-2.25l-.07-.02"/>
          <path class="cls-1" d="m69.28,141.07l-2.91-.03c.07.76.93,1,1.43.58.46-.38.89-.22,1.36-.28-.38,1.08-1.39,1.58-2.71,1.23-.6-.16-1.18-1.24-1.1-1.86.09-.75.42-1.33,1.01-1.74.37-.26.83-.34,1.28-.28,1.33.17,1.82,1.06,1.63,2.38m-2.83-.81h.96s.95.02.95.02c-.15-.45-.56-.75-.97-.74-.35,0-.78.32-.94.72"/>
          <path class="cls-1" d="m73.06,139.23c-.03-.39.16-.48.49-.43.15.02.31,0,.53,0-.06.36-.11.69-.18,1.03-.17.85-.37,1.69-.54,2.54-.04.2-.11.3-.32.27-.24-.04-.47-.11-.71-.1-.21.01-.41.12-.62.17-.44.11-1.31-.2-1.58-.57-.73-1.02-.52-2.47.61-3.13.67-.39,1.44-.48,2.32.22m-1.46,2.6c.7.02,1.14-.61,1.17-1.26.03-.5-.48-1.02-.95-.99-.7.05-1.15.64-1.17,1.27-.02.57.4.98.95.99"/>
          <path class="cls-1" d="m106.56,137.89c-.05.24-.11.45-.12.67-.01.21-.11.25-.29.25-.51-.01-1.02-.01-1.56-.02-.08.37-.16.73-.25,1.14l1.81.02-.03.12q-.18.73-.93.72h-1.02c-.09.4-.17.8-.26,1.24l1.78.02.03.09c-.07.25-.06.62-.23.72-.21.13-.55.05-.84.05-.66,0-1.31,0-1.98-.01.12-.61.23-1.2.35-1.78.21-1.01.42-2.01.63-3.02l.21-.22c.89,0,1.79,0,2.7.02"/>
          <path class="cls-1" d="m39.64,141.48q-.13.87-.98.86l-2.04-.02c.14-.75.28-1.47.42-2.19.18-.87.36-1.74.56-2.6l.21-.22c.9,0,1.79,0,2.71.01-.05.19-.12.34-.12.5,0,.39-.19.44-.52.42-.44-.03-.88-.01-1.35-.02-.08.37-.16.73-.25,1.12l1.79.02v.12c-.06.24-.06.58-.21.69-.19.12-.51.05-.78.05-.31,0-.62,0-.97,0-.09.41-.17.81-.26,1.25h1.79Z"/>
          <path class="cls-1" d="m43.22,137.36l2.84.02q-.1.9-.99.9c-.26,0-.51-.01-.77,0l-.22.12c-.09.32-.14.64-.22,1l1.78.02v.08q-.12.78-.91.78h-1.04c-.08.4-.17.81-.26,1.25l1.81.02c-.06.3-.13.57-.19.85l-2.86-.02c.35-1.67.69-3.32,1.03-4.99"/>
          <path class="cls-1" d="m47.75,142.42c.35-1.68.69-3.34,1.04-5.06.69.04,1.36.05,2.03.13.54.06.96.69,1,1.32.07.96-.67,1.66-1.71,1.7-.22,0-.45,0-.67,0-.19-.02-.28.07-.31.24-.09.49-.18.98-.29,1.46l-.22.2c-.29.02-.57,0-.88,0m1.64-2.74c.41-.1.76-.15,1.07-.28.38-.16.4-.82.04-.99-.25-.11-.55-.13-.83-.19-.09.49-.17.9-.28,1.45"/>
          <path class="cls-1" d="m79.07,142.68h-.94c.35-1.69.69-3.34,1.03-5.01h.93c-.08.45-.17.89-.24,1.28.36-.03.71-.09,1.06-.08.92.03,1.21.74,1.1,1.44-.11.73-.27,1.45-.41,2.17-.03.16-.11.24-.29.23-.23-.02-.47,0-.75-.01.12-.6.24-1.18.36-1.77.04-.18.08-.36.11-.54.05-.34-.12-.62-.41-.72-.24-.08-.74.11-.84.37-.2.52-.35,1.06-.5,1.6-.09.34-.15.69-.22,1.04"/>
          <path class="cls-1" d="m12.12,140.14c-.06,1.25-.9,2.09-2.12,2.06-1.19-.04-1.84-.68-1.85-1.87,0-1.15.73-2.12,2.07-2.15,1.07-.03,1.99.72,1.9,1.96m-.92-.1c0-.59-.41-1.01-1.01-1-.59,0-1.09.55-1.1,1.28-.01.63.46.97.96.98.66,0,1.13-.6,1.15-1.26"/>
          <path class="cls-1" d="m60.38,140.56c-.09,1-.73,1.96-1.88,2.03-1.03.06-1.57-.18-1.95-1.03-.32-.72-.22-1.46.26-2.14.7-.98,2.05-1.08,2.99-.37.33.26.51.67.53,1.12,0,.11.02.21.04.39m-.97-.1c.06-.49-.36-.96-.97-1-.54-.03-1.13.63-1.11,1.2.02.67.32,1.05.91,1.06.66.01,1.16-.53,1.17-1.26"/>
          <path class="cls-1" d="m20.8,138.53c.51-.25,1.01-.28,1.53-.08.58.22.72.9.63,1.38-.13.7-.28,1.4-.41,2.11-.03.17-.09.28-.3.26-.24-.01-.48,0-.75,0,.16-.77.31-1.51.47-2.25.07-.35-.07-.65-.38-.77-.27-.1-.76.08-.88.39-.22.6-.38,1.21-.55,1.82-.07.25-.11.51-.16.78h-.94c.27-1.29.54-2.55.82-3.85.31.11.66-.14.92.22"/>
          <path class="cls-1" d="m78.1,140.29c-.24,0-.45.02-.66-.01-.12-.02-.26-.09-.33-.18-.4-.48-.76-.55-1.32-.35-.42.15-.69.82-.63,1.29.06.47.32.74.75.82.41.08.78-.03,1.03-.41l.24-.15c.28-.02.57,0,.86,0-.17.87-1.24,1.63-2.07,1.49-1.45-.23-1.85-1.05-1.75-2.13.12-1.25,1.08-1.95,2.15-1.9,1.1.06,1.71.72,1.74,1.53"/>
          <path class="cls-1" d="m56.27,139.48c-.59.04-.57.04-.68.58-.15.8-.32,1.59-.49,2.4h-.98c.2-.99.4-1.97.6-2.95-.17-.01-.33-.03-.5-.04.03-.15.06-.29.08-.42.04-.27.11-.48.47-.42l.18-.18c.06-.2.13-.4.13-.6,0-.33.18-.35.43-.33.18.01.37,0,.59,0-.07.39-.13.75-.19,1.13h.52c-.06.3-.11.56-.16.83"/>
          <path class="cls-1" d="m92.98,142.8h-1.05c.34-1.68.68-3.33,1.03-5h1.05c-.34,1.68-.68,3.33-1.03,5"/>
          <path class="cls-1" d="m62.52,142.55c.27-1.3.53-2.55.79-3.82h.81c0,.1.02.19.04.3.37-.25.76-.44,1.22-.35l.02.07c-.06.52-.23.89-.86.99-.55.09-.57.68-.68,1.13-.11.5-.19,1-.3,1.5l-.22.18c-.26.02-.53,0-.81,0"/>
          <path class="cls-1" d="m6.96,138.22c-.03.14-.05.25-.07.39.36-.31.74-.51,1.27-.42-.06.29-.11.58-.17.86-.86.14-1.13.21-1.39,1.41-.11.52-.21,1.04-.31,1.58h-.98c.13-.67.25-1.3.38-1.94.11-.53.24-1.06.33-1.59.04-.24.13-.32.36-.3.18.02.35,0,.59,0"/>
          <path class="cls-1" d="m17.42,142.15c.27-1.3.53-2.56.79-3.82h.94c-.08.44-.16.86-.24,1.28-.16.75-.33,1.5-.47,2.26-.04.22-.11.31-.33.29-.22-.02-.43,0-.67,0"/>
          <path class="cls-1" d="m56.36,101.78c.07.35-.18.6-.48.7-.28.09-.61.05-.91,0-.16-.02-.14-.51.03-.73.14-.18.3-.34.46-.52.17-.19.41-.31.61-.19.15.1.21.35.3.54v.2"/>
          <path class="cls-1" d="m37.11,101.54c.05.79-.9,1.01-1.37.79-.32-.15-.15-.45-.06-.6.19-.31.44-.61.73-.82.36-.26.71.06.7.62"/>
          <path class="cls-1" d="m95.14,141.85c-.05.29-.08.55-.15.8l-.21.17c-.24.02-.48,0-.77,0,.05-.31.1-.59.16-.87l.18-.11c.26,0,.52,0,.79,0"/>
          <path class="cls-1" d="m46.05,142.4c.06-.31.1-.58.16-.84l.18-.14c.26-.01.52,0,.8,0-.05.28-.08.54-.15.79l-.25.19c-.23.02-.46,0-.74,0"/>
          <path class="cls-1" d="m91.13,142.78h-.93c.06-.34.12-.64.18-.96h.96c-.07.33-.14.65-.21.96"/>
          <path class="cls-1" d="m102.07,141.9c-.06.31-.1.6-.17.88l-.21.1c-.24,0-.48,0-.75,0,.05-.29.09-.55.16-.81l.22-.17c.24-.02.48,0,.76,0"/>
          <path class="cls-1" d="m40.47,142.35c.06-.3.09-.53.15-.76l.21-.21c.25-.03.5,0,.77,0-.05.29-.08.56-.14.82l-.2.15c-.25.02-.5,0-.78,0"/>
          <path class="cls-1" d="m36.02,141.33c-.06.31-.1.58-.16.84l-.18.14c-.26.01-.52,0-.8,0,.05-.28.08-.53.15-.77.03-.09.16-.19.26-.21.23-.03.46,0,.73,0"/>
          <path class="cls-1" d="m19.4,137.16c-.04.16-.12.32-.11.47.01.36-.19.38-.46.36-.17-.02-.35,0-.53,0q.2-.94,1.11-.82"/>
        </g>
        <g>
          <path class="cls-3" d="m55.56,0c-.09,4.54-.14,8.99-.3,13.44-.04,1.17-.09,2.34-.14,3.51-.02.28-.09.46-.39.36-1.05-.34-2.02-.9-2.27-2.06-.16-.74.06-1.46.29-2.16.19-.59.4-1.18.71-1.79-.76.13-1.3.57-1.9.86-2.05,1-3.08,2.77-3.63,4.89-.23.88-.4,1.78-.43,2.67-.03,1.02.22,2.03.6,2.99.43,1.08.88,2.14,1.44,3.16.1.17.05.2-.08.31-.6.51-1.17,1.05-1.62,1.71-.66.97-.65,2.02-.46,3.1.08.45.18.89.29,1.42.74-1.13,1.8-1.46,3.02-1.53,1.2-.07,2.26-.6,3.26-1.24.19-.12.38-.41.61-.27.22.13.09.45.07.67-.1,1.51.09,3.03,0,4.54,0,.17.11.44-.1.5-.14.04-.34-.11-.5-.2-.96-.53-1.91-1.07-2.86-1.6-.06-.03-.12-.04-.24-.08v.59c-.06,2.25-.12,4.49-.14,6.73,0,.54-.18.66-.69.65-3.44-.09-6.89-.15-10.34-.22h-.65c.87,1.13,1.69,2.2,2.58,3.37-1.52-.11-2.93,0-4.34-.17-1.01-.12-2.05-.02-3.06-.11-1.54-.13-3.08-.07-4.6-.21-1.07-.1-2.14-.06-3.2-.15-1.62-.13-3.25-.08-4.86-.22-1.28-.11-2.55-.06-3.82-.16-.62-.05-1.21-.05-1.83.06-.8.13-1.28-.5-1.08-1.29.24-.95.82-1.72,1.4-2.48,1.47-1.94,2.98-3.86,4.47-5.79.78-1.01,1.17-2.23,1.72-3.36.13-.28.26-.56.4-.83.06-.12.1-.31.27-.26.19.06.13.28.09.4-.16.51-.09,1.02-.13,1.58.23-.08.33-.23.43-.42.27-.49.55-.99.85-1.46.08-.13.14-.45.44-.21.12.09.12-.08.15-.11.09-.17.17-.34.21-.52.26-1.15,1.32-1.45,2.16-1.94,1.6-.94,3.24-1.83,4.77-2.89,1.84-1.27,3.48-2.8,5.05-4.39,1.14-1.16,2.21-2.39,3.32-3.58.39-.41.86-.72,1.35-1.01,1.28-.75,2.13-1.96,3.07-3.07.88-1.04,1.76-2.09,2.71-3.08,1.31-1.35,2.59-2.73,3.84-4.14.75-.85,1.53-1.67,2.28-2.51.58-.64,1.17-1.29,1.82-2"/>
          <path d="m58.88.3c1.02,1.67,2.04,3.17,3.17,4.59,1.18,1.49,2.43,2.94,3.98,4.1.92.69,1.8,1.44,2.64,2.25.96.93,1.91,1.85,2.7,2.93.11.16.2.18.33-.02.11-.17.37-.38.49-.05.29.83,1.09,1.11,1.66,1.62.24.22.41.42.51.72.19.57.41,1.13.63,1.68.14.37.36.68.73.86.27.13.46.33.52.64.04.21.17.37.36.49.6.39.78,1.07,1.09,1.65.72,1.36,1.39,2.75,2.1,4.13.92,1.8,2.3,3.18,3.98,4.29,1.37.91,2.89,1.55,4.25,2.48.25.17.44.38.64.58.23.24.43.43.82.3.3-.1.39.11.34.38-.09.49.08.85.55,1.11.06-.35.13-.66.17-.97.01-.13.07-.26.18-.28.19-.03.22.2.22.28,0,.25.08.47.12.7.04.25.13.45.48.49.43.05.36.49.42.79.1.45.07.93.3,1.38.31-.16.27-.57.59-.69.4.43.51,1,.73,1.52.19.44.32.91.9,1.02.1.02.22.1.28.19.58.91,1.14,1.84,1.65,2.8.17.32.05.45-.24.52-1.65.42-3.3.46-4.95-.02-.72-.22-1.47-.52-2.2-.49-.95.03-1.91-.05-2.86.12-1.98.36-3.93.89-5.93,1.13-1.63.2-3.25.42-4.88.61-1.9.23-3.8.43-5.71.62-.39.04-.78.06-1.26.06.76-1.11,1.5-2.16,2.26-3.27h-.64c-3.34-.08-6.68-.15-10.03-.21-.36,0-.46-.09-.45-.46.07-2.48.11-4.97.16-7.55-1.1.61-2.15,1.2-3.26,1.84.03-1.7.07-3.33.1-4.96,0-.33.23-.23.4-.23.97.01,1.94.09,2.91.04,1.6-.09,3.2-.22,4.66-1,1.46-.78,2.82-1.7,4.15-2.67.53-.39,1.05-.8,1.66-1.27-.43,0-.76,0-1.1-.02-1.86-.11-3.71-.32-5.45-1.05-1-.42-1.91-.98-2.74-1.68-.26-.22-.18-.45-.06-.68,1.01-1.83,2.46-3.13,4.51-3.73.93-.27,1.89-.44,2.91-.68-2.34-2.35-4.65-4.65-6.97-6.97-.41,1.12-.76,2.22-1.22,3.28-.44,1-.86,2.04-1.89,2.62-.32.18-.72.49-.99.3-.28-.2.02-.68.13-.94.6-1.45.75-2.96.72-4.48-.02-1.44-.01-2.9-.25-4.32-.15-.9.08-1.76-.05-2.64-.05-.35.22-.76.37-1.13.34-.81.47-1.69.69-2.66"/>
          <path class="cls-4" d="m77.85,64.84c-.17.51-.66.71-1.04,1.03-.94.77-1.96,1.44-2.87,2.26-.78.7-1.28,1.56-1.68,2.48-.19.44-.43.72-.97.77-.72.06-1.26.48-1.72,1.21-.41.65-.94,1.2-1.59,1.6-.37.23-.43.54-.59.83-.11.21-.22.37-.52.25-.49-.18-.95.12-.94.65,0,.43-.16.81-.29,1.18-.23.64-.83.85-1.45.95-.2.03-.54.01-.74-.03-.53-.09-.98.19-1.28.49-.75.79-1.69,1.33-2.51,2.03-1.15.97-2.39,1.83-3.47,2.89-.1.09-.19.2-.26.31-.06.11-.07.29-.27.24-.18-.05-.14-.21-.14-.34.02-1.37.1-2.75-.02-4.12-.14-1.54-.08-3.09.06-4.63.13-1.51-.09-1.72.61-1.3.85.51,1.7,1.03,2.64,1.6v-.65c.17-7.73.34-15.46.47-23.19,0-.55.22-.69.68-.67,3.15.09,6.3.07,9.45.23.29.01.69.09.87-.15.17-.23-.17-.45-.28-.67-.48-.89-.97-1.78-1.45-2.67-.25-.48-.17-.57.38-.61,1.49-.12,2.98-.28,4.47-.4,1.15-.1,2.3-.19,3.46-.25,2.01-.11,4.03-.21,6.04-.29.71-.03,1.41-.03,2.12-.06,2.09-.07,4.16-.23,6.25-.23,1.36,0,2.72-.3,4.08-.45.65-.07,1.3-.19,1.96-.13.23.02.49.02.57.26.08.25.01.49-.19.7-.77.77-1.64,1.41-2.56,1.98-1.07.67-2,1.44-2.55,2.59-.17.34-.44.61-.65.92-.11.15-.26.25-.44.19-.22-.08-.19-.26-.13-.44.05-.12.04-.26-.06-.33-.15-.1-.2.08-.29.14-1.13.84-1.91,2.01-2.87,3.01-.35.37-.71.74-1.04,1.13-1.25,1.47-2.81,2.61-4.22,3.9-2.05,1.89-4.1,3.78-6.02,5.8l-.07.14-.04.05.04-.04c.36.03.63-.33,1-.22l.06.05"/>
          <path class="cls-2" d="m41.65,46.37c-.95,1.33-1.82,2.56-2.76,3.88h.68s10.34.22,10.34.22q.68.01.67.67c-.16,7.75-.32,15.49-.47,23.24v.6c1.31-.49,2.44-1.27,3.75-1.75.03.76-.08,1.48-.17,2.18-.08.64-.09,1.29-.18,1.94-.18,1.27-.21,2.56-.31,3.85-.03.34-.15.67-.13,1.02.01.12.04.3-.17.32-.15.02-.28-.02-.36-.16-.09-.14-.25-.3-.18-.46.21-.51-.06-.58-.47-.65-.26-.04-.41-.31-.54-.55-.08-.15-.16-.3-.23-.45-.39-.84-1.19-1-1.96-1.21-.15-.04-.3-.07-.44-.13-.19-.08-.26-.19-.02-.31.11-.06.22-.1.32-.17.39-.28.37-.46-.06-.67-.85-.4-1.21-1.22-1.69-1.93-.16-.25-.33-.49-.56-.68-.32-.26-.63-.43-1.03-.05-.35.35-.58.23-.69-.25-.05-.2-.1-.4-.08-.61.04-.53-.09-.95-.72-1.01l-.1-.02c-.14-.79-.99-.4-1.37-.82-.41-.46-.87-.88-1.33-1.3-1.51-1.37-2.82-2.95-4.51-4.12-.32-.22-.68-.39-1.03-.57-.92-.48-1.46-1.29-1.9-2.18-.85-1.72-2.24-2.93-3.85-3.89-2.14-1.28-3.79-3.04-5.29-4.99-.93-1.21-1.86-2.41-2.81-3.6-.17-.21-.41-.36-.64-.51-.2-.14-.43-.2-.52.12-.12.42-.29.16-.4.02-.62-.79-1.23-1.59-1.84-2.39-.65-.85-1.32-1.68-1.95-2.54-.21-.29-.34-.63-.47-.96-.15-.39-.01-.58.43-.57,1.55.03,3.1.04,4.64.28.56.09,1.13.07,1.7.14,1.32.15,2.64.18,3.96.31,1.36.13,2.72.32,4.08.48.19.02.38.02.57.02l10.1.2"/>
        </g>
      </g>
    </g>
  </g>
</svg>