<svg width="30" height="35" viewBox="0 0 30 35" fill="none" xmlns="http://www.w3.org/2000/svg">
<path d="M28.6961 0C27.1884 5.28259 22.1696 11.2921 16.7443 12.7622C14.3158 13.4219 11.7418 13.1957 9.37242 14.1784C6.7419 15.2689 4.1356 18.2037 3.31979 20.9203C5.26105 18.8606 7.6331 16.6286 10.6352 16.8197C11.626 16.8844 12.7353 17.6329 13.2442 18.5052C14.7923 21.1519 12.5684 24.9752 10.926 27.0726C9.1651 29.3181 7.32885 30.8636 4.81679 32.2932C3.40864 33.0929 1.61547 34.1133 0 34.2157V34.4122C4.27561 35.193 7.96157 33.7256 11.5775 31.6363C14.865 29.7381 19.006 25.686 22.9451 25.9983C27.1426 26.3322 25.6106 31.5232 25.379 34.318C25.3602 34.5307 25.2363 35.0476 25.5702 34.9965C27.1318 31.814 28.8254 28.3246 29.5766 24.8325C29.9158 23.2601 30.2954 21.3592 28.0176 21.5046C26.036 21.6311 21.8223 24.3505 20.2957 22.3393C19.1406 20.8153 20.8503 18.1417 21.6661 16.7147C24.6763 11.4402 29.5416 6.68266 28.8927 0H28.6961Z" fill="#FA7100"/>
<path d="M16.4456 1.99771C11.3595 1.26267 10.8587 10.1128 15.7428 10.3524C20.4573 10.5812 20.907 2.64389 16.4456 1.99771Z" fill="#FA7100"/>
</svg>
