<?xml version="1.0" encoding="UTF-8"?>
<svg id="Layer_2" data-name="Layer 2" xmlns="http://www.w3.org/2000/svg" xmlns:xlink="http://www.w3.org/1999/xlink" viewBox="0 0 1338.31 357.4">
  <defs>
    <style>
      .cls-1 {
        filter: url(#drop-shadow-1);
      }

      .cls-2 {
        fill: #f2f2f2;
      }
    </style>
    <filter id="drop-shadow-1" filterUnits="userSpaceOnUse">
      <feOffset dx="11.14" dy="15.83"/>
      <feGaussianBlur result="blur" stdDeviation="5.28"/>
      <feFlood flood-color="#000" flood-opacity=".14"/>
      <feComposite in2="blur" operator="in"/>
      <feComposite in="SourceGraphic"/>
    </filter>
  </defs>
  <g id="Text_Effect" data-name="Text Effect">
    <g id="Background">
      <g class="cls-1">
        <path class="cls-2" d="m69.01,32.19c9.88-3.38,25.44-.02,40.59-.7,24.48-1.09,49.17-8.63,74.69.16,15.35,5.28,32.34,1.77,47.66-.62,10.57-1.65,19.94.3,28.9,2.08,14.38,2.85,29.73,2.24,43.27,9.04,5.88,2.96,13.31,2.52,19.36.38,10.91-3.85,22.48-3.12,33.81-4.38,22.35-2.49,45.63-3.94,63.57-17.33,2.62-1.96,5.73-2.44,9.2-2.07,2.06.22,4.42.81,6.17.25,26.36-8.43,55.27-3.38,82.26-8.85,13.54-2.74,26.53-6.84,40.27-9.23,9.71-1.68,17.95-.8,27.51.63,29.76,4.47,60.24,8.22,89.85,5.59,15.65-1.39,31.88-6.31,46.76-2.3,19.34,5.21,37.94,5.86,57.21,4.45.41-.03.99.17,1.22,0,17.32-12.56,37.17,1.88,55.3-2.1,1.93-.42,4.51.48,6.13-.24,17.1-7.57,32.5,1.21,48.77,4.08,21.29,3.76,41.88,12.71,64.39,9.19,1.19-.19,2.98-.67,3.55-.2,12.99,10.52,25.7,2.49,38.36.58,5.39-.81,11.04-1.65,15.96-.24,14.36,4.13,28.78,3.05,42.92,1.81,12.29-1.07,22.36,5.66,35.19,4.55,20.22-1.75,40.4-4.26,60.81-5.23,6.9-.33,12.92-1.17,18.35,3.58,4.05,3.54,9.36,4.52,14.94,4.36,10.74-.3,21.93.76,32.11-1.29,15.21-3.06,30.08-1.64,43.88,2.9,16.79,5.52,31.65,1.85,45.05-3.79,12.05-5.07,17.35,1.96,25.26,5.52,8.43,3.79,2.33,7.89,1.65,12.22-.96,6.1-1.66,12.46,1.16,18.56,5.45,11.79,3.1,23.33-.28,34.74-1.88,6.35-9.39,8.27-15.12,11.25-8.19,4.26-10.82,8.62-3.56,15.83,7.29,7.23,3.97,12.91-4.97,16.5-5.75,2.31-7.76,4.91-2.49,9.26,4.44,3.66,2.36,6.24-.54,9.78-5.98,7.3-11.7,14.72-18.04,21.84-5.94,6.68-12.55,14.13-4.58,23.53.63.75.82,2.78.59,2.85-13.21,3.98-8.14,15.53-12.16,23.17-2.69,5.13-2.46,10.99-7.89,15.88-2.66,2.4,3.02,7.55,7.35,9.83,12.19,6.41,14.58,17.33,19.06,27.26,3.62,8.04,7.82,15.79,8.63,24.69,1.09,11.98-2.43,18.56-16.28,21.49-11.14,2.36-22.46,4.02-32.65,8.69-1.68.77-4.15,1.25-5.97.85-26.12-5.78-52.86-4.73-79.22-7.55-6.94-.74-13.39,2.77-18.07,2.42-15.05-1.11-29.75,5.14-44.81-.37-12.04-4.41-23.91-3.76-35.97.3-17.84,6.01-36.27,4.75-54.59-.6-1.58-.46-3.86-1.78-4.6-1.33-12.42,7.56-22.74-1.72-33.6-4.11-19.25-4.23-37.94-4.52-55.77,1.97-20.72,7.54-41.21,5.38-61.77-1.13-14.28-4.52-27.73-6.56-41.19,1.17-7.73,4.44-16.77,1.98-25.2-.28-30.55-8.17-61.19-11.42-92.66-6.2-10.15,1.68-21.5,7.38-31.72-1.83-.84-.76-3.26-.73-4.77-.46-18.1,3.25-37.24-1.61-55.11,3.61-13.89,4.06-27.55-2.43-41.41-2.23-2.78.04-5.62-1.1-8.51-.25-11.32,3.33-21.4,2.75-30.33-5.79-3.19-3.05-8.97-4.28-13.82-2.01-15.28,7.17-32.59,9.25-49.47,10.99-18.36,1.89-37.21,1.75-55.22-5.69-8.8-3.63-18.75-1.89-28.1-.9-21.69,2.29-43.1,4.09-64.8-2.81-11.85-3.77-34.77,5.68-42.05,16.42-3.45,5.09-7.42,7.9-14.63,7.07-1.61-.18-3.46-.18-4.89.32-23.76,8.3-50.57,6.95-74.52,14.7-2.52.82-6.79,1.5-8.34.38-15.09-10.92-31.82-1.53-47.5-4.39-15.8-2.88-31.64-4.31-47.56-1.09-6.45,1.31-10.85-2.08-13.87-6.99-2.68-4.37-5.24-9.01-9.06-12.63-6.51-6.16-6.05-10.31,1.57-15.23,8.97-5.79,6.13-15.89,8.73-23.91,1.96-6.05.66-13.15-2.1-20.04-3.02-7.55,8.23-22.63,17.31-25.59,8.27-2.69,11.09-6.67,8.26-14.45-4.11-11.31-7.12-22.89-10.71-34.3-3.7-11.75-13.31-15.62-23.84-18.98-13.06-4.16-21.93-16.88-17.94-28.34.33-.94.91-2.54.43-2.88-10.97-7.65-5.15-18.93-9.03-28.28-2.83-6.8-6.63-14.67-6.35-22.58.13-3.75-2.39-6.73-4.95-9.47C5.14,77.8,3.61,65.68.26,54.37c-1.81-6.12,6.25-9.37,12.92-9.18,8.72.25,14.92-2.44,20.8-7.14,8.41-6.73,19.17-6.61,35.03-5.86Z"/>
      </g>
    </g>
  </g>
</svg>